<?xml version="1.0" encoding="utf-8"?>
<!-- Generator: Adobe Illustrator 16.0.4, SVG Export Plug-In . SVG Version: 6.00 Build 0)  -->
<!DOCTYPE svg PUBLIC "-//W3C//DTD SVG 1.1//EN" "http://www.w3.org/Graphics/SVG/1.1/DTD/svg11.dtd">
<svg version="1.1" xmlns="http://www.w3.org/2000/svg" xmlns:xlink="http://www.w3.org/1999/xlink" x="0px" y="0px" width="90px"
	 height="110px" viewBox="0 0 90 110" enable-background="new 0 0 90 110" xml:space="preserve">
<g id="Layer_2" display="none">
	<rect display="inline" fill="#3C3F3E" width="90" height="110"/>
</g>
<g id="Layer_1">
	<ellipse fill="none" stroke="#74FFCA" stroke-width="6" stroke-miterlimit="10" cx="45.618" cy="43.973" rx="39.836" ry="40.583"/>
	<g>
		<path fill="#74FFCA" d="M35.844,59.585c0,2.645-2.146,4.626-4.735,4.681v0.056h-3.028c-2.698,0-4.9-2.038-4.9-4.736V34.023
			c0.055-0.605,0.55-1.102,1.156-1.102h2.808V58.87c0,1.156,0.881,2.093,2.037,2.093h0.605c1.157,0,2.093-0.937,2.093-2.093V32.922
			h3.963V59.585z"/>
		<path fill="#74FFCA" d="M68.551,47.969v11.287c-0.056,2.697-2.203,4.845-4.901,4.845h-7.157V25.56h7.157
			c2.698,0,4.846,2.147,4.901,4.845v11.287c0,0,0.055,2.422-2.259,3.138C68.605,45.545,68.551,47.969,68.551,47.969z M64.585,31.506
			c0-1.432-0.991-1.982-2.035-1.982h-2.147v13.49h2.147c1.044,0,2.035-0.496,2.035-2.258V31.506z M64.585,48.849
			c0-1.706-0.991-2.202-2.035-2.202h-2.147v13.544h2.147c1.044,0,2.035-0.551,2.035-2.037V48.849z"/>
	</g>
	<line fill="none" stroke="#74FFCA" stroke-width="4" stroke-miterlimit="10" x1="23" y1="28" x2="36" y2="28"/>
	<text transform="matrix(1 0 0 1 21.9995 106.8027)" fill="#74FFCA" font-family="'Dense-Regular'" font-size="20.8186">Underbar</text>
	<circle fill="#74FFCA" cx="46.531" cy="44.781" r="2.719"/>
</g>
</svg>
