<?xml version="1.0" encoding="utf-8"?>
<!-- Generator: Adobe Illustrator 16.0.4, SVG Export Plug-In . SVG Version: 6.00 Build 0)  -->
<!DOCTYPE svg PUBLIC "-//W3C//DTD SVG 1.1//EN" "http://www.w3.org/Graphics/SVG/1.1/DTD/svg11.dtd">
<svg version="1.1" id="Layer_1" xmlns="http://www.w3.org/2000/svg" xmlns:xlink="http://www.w3.org/1999/xlink" x="0px" y="0px"
	 width="3.296px" height="2.941px" viewBox="0 0 3.296 2.941" enable-background="new 0 0 3.296 2.941" xml:space="preserve">
<g>
	<path fill="#4DFFBB" d="M1.921,2.764L3.245,0.47C3.379,0.236,3.236,0,2.972,0H0.326C0.133,0,0,0.116,0,0.283
		c0,0.062,0.018,0.124,0.054,0.186l1.325,2.296c0.065,0.112,0.165,0.177,0.271,0.177S1.855,2.877,1.921,2.764z M1.613,2.628
		L0.288,0.334C0.271,0.305,0.27,0.288,0.27,0.283l-0.001,0c0.003-0.003,0.019-0.012,0.056-0.012h2.647
		c0.037,0,0.053,0.008,0.055,0.013c0,0.003-0.001,0.021-0.018,0.051L1.685,2.628C1.667,2.66,1.651,2.669,1.65,2.671
		C1.646,2.669,1.63,2.66,1.613,2.628z"/>
</g>
</svg>
