<?xml version="1.0" encoding="utf-8"?>
<!-- Generator: Adobe Illustrator 16.0.4, SVG Export Plug-In . SVG Version: 6.00 Build 0)  -->
<!DOCTYPE svg PUBLIC "-//W3C//DTD SVG 1.1//EN" "http://www.w3.org/Graphics/SVG/1.1/DTD/svg11.dtd">
<svg version="1.1" id="Layer_1" xmlns="http://www.w3.org/2000/svg" xmlns:xlink="http://www.w3.org/1999/xlink" x="0px" y="0px"
	 width="3.296px" height="2.941px" viewBox="0 0 3.296 2.941" enable-background="new 0 0 3.296 2.941" xml:space="preserve">
<g>
	<path fill="#4DFFBB" d="M1.375,0.177L0.051,2.471c-0.135,0.234,0.009,0.47,0.272,0.47H2.97c0.192,0,0.326-0.116,0.326-0.283
		c0-0.062-0.018-0.124-0.054-0.186L1.918,0.177C1.853,0.064,1.753,0,1.646,0S1.44,0.064,1.375,0.177z M1.683,0.313l1.325,2.293
		c0.017,0.029,0.018,0.047,0.018,0.051l0.001,0C3.024,2.662,3.008,2.67,2.971,2.67H0.323c-0.037,0-0.053-0.008-0.054-0.013
		c0-0.003,0.001-0.021,0.018-0.051l1.325-2.293c0.017-0.032,0.034-0.041,0.034-0.043C1.649,0.272,1.666,0.282,1.683,0.313z"/>
</g>
</svg>
