<?xml version="1.0" encoding="utf-8"?>
<!-- Generator: Adobe Illustrator 16.0.4, SVG Export Plug-In . SVG Version: 6.00 Build 0)  -->
<!DOCTYPE svg PUBLIC "-//W3C//DTD SVG 1.1//EN" "http://www.w3.org/Graphics/SVG/1.1/DTD/svg11.dtd">
<svg version="1.1" id="Layer_1" xmlns="http://www.w3.org/2000/svg" xmlns:xlink="http://www.w3.org/1999/xlink" x="0px" y="0px"
	 width="22.773px" height="22.957px" viewBox="0 0 22.773 22.957" enable-background="new 0 0 22.773 22.957" xml:space="preserve">
<g>
	<path fill="#4DFFBD" d="M21.541,7.192c1.643-1.643,1.643-4.316,0-5.961c-1.643-1.643-4.316-1.641-5.96,0
		c-0.123,0.125-0.122,0.297-0.056,0.447c-1.271-0.543-2.67-0.848-4.138-0.848c-1.469,0-2.868,0.305-4.141,0.848
		c0.067-0.15,0.068-0.322-0.055-0.445c-1.643-1.643-4.315-1.641-5.96,0c-1.643,1.645-1.643,4.318,0,5.961
		c0.08,0.08,0.184,0.121,0.289,0.121c0.055,0,0.103-0.041,0.154-0.064c-0.543,1.271-0.846,2.668-0.846,4.137
		c0,3.426,1.649,6.467,4.185,8.399c-0.32,0.135-0.611,0.342-0.787,0.65c-0.224,0.387-0.285,0.838-0.171,1.27
		c0.116,0.436,0.395,0.797,0.785,1.023c0.255,0.146,0.544,0.225,0.838,0.225c0.599,0,1.157-0.32,1.455-0.84
		c0.178-0.311,0.216-0.654,0.185-0.986c1.253,0.525,2.628,0.818,4.07,0.818c1.441,0,2.814-0.293,4.066-0.816
		c-0.031,0.332,0.008,0.676,0.188,0.986c0.299,0.52,0.855,0.84,1.451,0.84c0.293,0,0.584-0.08,0.838-0.227
		c0.389-0.225,0.668-0.584,0.783-1.018c0.117-0.434,0.059-0.887-0.166-1.273c-0.178-0.309-0.471-0.514-0.79-0.652
		c2.538-1.93,4.187-4.973,4.187-8.399c0-1.469-0.305-2.867-0.848-4.141c0.051,0.021,0.098,0.064,0.156,0.064
		C21.355,7.312,21.461,7.272,21.541,7.192z M1.81,1.813c1.326-1.32,3.48-1.32,4.803,0c0.052,0.053,0.123,0.061,0.191,0.08
		C4.662,2.931,2.926,4.665,1.889,6.808c-0.018-0.068-0.026-0.141-0.08-0.191C0.487,5.294,0.487,3.14,1.81,1.813z M6.422,21.707
		c-0.225,0.395-0.774,0.547-1.171,0.314c-0.2-0.117-0.344-0.303-0.402-0.525c-0.059-0.219-0.028-0.449,0.087-0.648
		c0.152-0.264,0.437-0.43,0.743-0.43c0.15,0,0.297,0.041,0.43,0.117C6.517,20.769,6.659,21.296,6.422,21.707z M17.836,20.849
		c0.115,0.195,0.146,0.43,0.087,0.648c-0.06,0.223-0.201,0.406-0.401,0.521c-0.399,0.232-0.943,0.082-1.172-0.312
		c-0.234-0.41-0.094-0.938,0.315-1.174c0.128-0.074,0.276-0.115,0.426-0.115C17.398,20.417,17.683,20.583,17.836,20.849z
		 M21.123,11.386c0,5.372-4.367,9.741-9.735,9.741c-5.37,0-9.739-4.369-9.739-9.741c0-5.367,4.37-9.734,9.739-9.734
		C16.757,1.651,21.123,6.019,21.123,11.386z M20.963,6.612c-0.055,0.053-0.062,0.125-0.08,0.191
		c-1.039-2.141-2.775-3.875-4.916-4.912c0.066-0.02,0.139-0.027,0.191-0.08c1.324-1.322,3.479-1.322,4.805,0
		C22.283,3.136,22.283,5.29,20.963,6.612z"/>
	<path fill="#4DFFBD" d="M11.388,3.505c-4.386,0-7.952,3.564-7.952,7.949c0,4.387,3.566,7.952,7.952,7.952
		c4.384,0,7.949-3.564,7.949-7.952C19.337,7.069,15.771,3.505,11.388,3.505z M11.388,18.587c-3.934,0-7.133-3.199-7.133-7.133
		c0-3.932,3.199-7.131,7.133-7.131c3.931,0,7.13,3.199,7.13,7.131C18.518,15.388,15.318,18.587,11.388,18.587z"/>
	<path fill="#4DFFBD" d="M11.798,11.317V6.45c0-0.227-0.183-0.41-0.41-0.41s-0.41,0.186-0.41,0.41v5.037
		c0,0.107,0.043,0.213,0.121,0.287l2.372,2.375c0.079,0.078,0.186,0.119,0.29,0.119s0.209-0.041,0.29-0.119
		c0.159-0.16,0.159-0.422,0-0.58L11.798,11.317z"/>
</g>
</svg>
