<?xml version="1.0" encoding="utf-8"?>
<!-- Generator: Adobe Illustrator 16.0.4, SVG Export Plug-In . SVG Version: 6.00 Build 0)  -->
<!DOCTYPE svg PUBLIC "-//W3C//DTD SVG 1.1//EN" "http://www.w3.org/Graphics/SVG/1.1/DTD/svg11.dtd">
<svg version="1.1" xmlns="http://www.w3.org/2000/svg" xmlns:xlink="http://www.w3.org/1999/xlink" x="0px" y="0px"
	 width="25.406px" height="28.452px" viewBox="5.765 1.11 25.406 28.452" enable-background="new 5.765 1.11 25.406 28.452"
	 xml:space="preserve">
<g id="Layer_1" display="none">
	<g display="inline">
		<path fill="#3C3F3F" d="M1.638,30.417c0.268,0.066,0.542-0.088,0.612-0.354c1.03-3.843,5.141-3.582,7.643-4.18
			c0.627-0.147,1.122-0.267,1.444-0.404c2.85-1.237,2.717-2.92,2.995-4.371c0.034-0.176-0.029-0.354-0.165-0.474
			c-1.484-1.28-2.736-3.204-3.526-5.416c-0.022-0.063-0.057-0.121-0.103-0.171c-1.045-1.136-1.645-2.337-1.645-3.294
			c0-0.559,0.211-0.934,0.686-1.217c0.145-0.087,0.236-0.24,0.243-0.408C10.042,5.036,13.67,1.026,18.12,1
			c0.005,0,0.102,0.007,0.107,0.007c4.472,0.062,8.078,4.158,8.207,9.324c0.004,0.143,0.067,0.277,0.178,0.369
			c0.312,0.265,0.459,0.601,0.459,1.057c0,0.801-0.428,1.786-1.2,2.772c-0.037,0.047-0.063,0.101-0.084,0.158
			c-0.802,2.536-2.236,4.775-3.938,6.145c-0.145,0.116-0.213,0.302-0.179,0.482c0.278,1.451-0.168,2.928,2.683,4.168
			c0.336,0.146,0.859,0.26,1.522,0.402c2.478,0.537,6.644,0.642,7.661,4.438c0.061,0.224,0.262,0.37,0.481,0.37
			c0.043,0,0.086-0.006,0.13-0.018c0.268-0.071,0.425-0.347,0.354-0.612c-1.174-4.388-5.893-4.61-8.414-5.156
			c-0.585-0.127-1.09-0.234-1.336-0.344c-1.859-0.809-1.631-1.527-2.036-3.153c1.728-1.483,3.173-3.771,3.998-6.337
			c0.877-1.14,1.358-2.314,1.358-3.317c0-0.669-0.215-1.227-0.645-1.663c-0.236-5.604-4.236-10.017-9.2-10.088l-0.149-0.002
			c-4.873,0.026-8.889,4.323-9.24,9.83c-0.626,0.46-0.944,1.105-0.944,1.924c0,1.183,0.669,2.598,1.84,3.896
			c0.809,2.223,2.063,4.176,3.556,5.542c-0.403,1.634-0.488,2.559-2.352,3.369c-0.241,0.104-0.721,0.22-1.277,0.354
			c-2.541,0.604-7.193,0.472-8.377,4.889C1.213,30.073,1.371,30.346,1.638,30.417z"/>
	</g>
</g>
<g id="Layer_2" display="none">
	<g display="inline">
		<path fill="#3C3F3E" d="M18.43,9.755c-3.128,0-5.672,2.544-5.672,5.672c0,3.128,2.544,5.676,5.672,5.676
			c3.129,0,5.673-2.55,5.673-5.676C24.103,12.299,21.559,9.755,18.43,9.755z M18.43,20.066c-2.556,0-4.635-2.081-4.635-4.639
			c0-2.557,2.079-4.637,4.635-4.637c2.556,0,4.637,2.08,4.637,4.637C23.066,17.985,20.985,20.066,18.43,20.066z"/>
		<path fill="#3C3F3E" d="M32.237,11.48l-3.281-0.413l2.03-2.611c0.161-0.205,0.141-0.5-0.045-0.683L26.086,2.91
			c-0.186-0.185-0.48-0.199-0.685-0.042L22.791,4.9l-0.41-3.282c-0.034-0.262-0.254-0.455-0.517-0.455h-6.872
			c-0.261,0-0.482,0.193-0.514,0.455l-0.411,3.284l-2.611-2.03c-0.204-0.158-0.498-0.142-0.683,0.042l-4.86,4.858
			C5.729,7.955,5.71,8.25,5.871,8.455l2.032,2.611L4.618,11.48c-0.259,0.032-0.452,0.251-0.452,0.511v6.872
			c0,0.263,0.193,0.482,0.454,0.515l3.283,0.41L5.871,22.4c-0.16,0.209-0.142,0.501,0.043,0.684l4.86,4.858
			c0.186,0.189,0.479,0.203,0.683,0.041l2.612-2.027l0.411,3.286c0.033,0.255,0.253,0.45,0.514,0.45h6.871
			c0.263,0,0.484-0.195,0.517-0.45l0.41-3.286l2.61,2.027c0.209,0.162,0.502,0.148,0.685-0.041l4.858-4.86
			c0.183-0.185,0.203-0.479,0.042-0.688l-2.027-2.606l3.278-0.41c0.259-0.032,0.454-0.252,0.454-0.515v-6.872
			C32.691,11.731,32.496,11.512,32.237,11.48z M31.655,18.407l-3.728,0.464c-0.187,0.026-0.345,0.145-0.416,0.315
			c-0.071,0.174-0.046,0.368,0.069,0.517l2.307,2.972l-4.211,4.211l-2.971-2.307c-0.146-0.112-0.343-0.137-0.517-0.069
			c-0.17,0.073-0.289,0.232-0.315,0.416l-0.466,3.731H15.45l-0.467-3.731c-0.024-0.186-0.145-0.343-0.315-0.416
			c-0.174-0.073-0.37-0.043-0.516,0.069l-2.97,2.307l-4.214-4.207l2.31-2.976c0.115-0.148,0.142-0.343,0.071-0.517
			c-0.074-0.171-0.23-0.289-0.415-0.315l-3.732-0.464V12.45l3.734-0.47c0.183-0.022,0.342-0.145,0.414-0.314
			c0.07-0.171,0.044-0.37-0.071-0.518l-2.31-2.967l4.214-4.211l2.97,2.308c0.147,0.114,0.344,0.144,0.516,0.071
			c0.17-0.074,0.292-0.233,0.315-0.416l0.467-3.734h5.958l0.466,3.732c0.026,0.185,0.146,0.343,0.315,0.416
			c0.174,0.071,0.371,0.041,0.517-0.071l2.971-2.313l4.211,4.216l-2.307,2.968c-0.115,0.147-0.141,0.344-0.069,0.517
			c0.069,0.17,0.229,0.292,0.413,0.314l3.73,0.47V18.407z"/>
	</g>
</g>
<g id="Layer_3">
	<path fill="#3C3F3E" d="M29.121,4.155h-0.998V3.148c0-1.125-0.915-2.038-2.039-2.038s-2.037,0.915-2.037,2.038v1.007H12.891V3.148
		c0-1.124-0.913-2.038-2.037-2.038c-1.125,0-2.037,0.915-2.037,2.038v1.007H7.792c-1.114,0.009-2.027,0.923-2.027,2.04v4.568v6.087
		v6.098v6.098c0,0.285,0.235,0.516,0.516,0.516h6.098h6.099h6.083h6.096c0.284,0,0.514-0.233,0.514-0.516v-6.098v-6.098v-6.087
		V6.195C31.17,5.078,30.263,4.165,29.121,4.155z M17.961,11.279v5.057h-5.066v-5.057H17.961z M24.047,11.279v5.057h-5.056v-5.057
		H24.047z M30.14,11.279v5.057h-5.062v-5.057H30.14z M11.864,16.336H6.797v-5.057h5.066L11.864,16.336L11.864,16.336z M6.797,17.365
		h5.066v5.066H6.797V17.365z M12.895,17.365h5.066v5.066h-5.066V17.365z M18.992,17.365h5.056v5.066h-5.056V17.365z M25.078,17.365
		h5.062v5.066h-5.062V17.365z M25.078,3.148c0-0.556,0.451-1.007,1.007-1.007c0.557,0,1.005,0.451,1.005,1.007v1.523v1.524
		c0,0.556-0.448,1.008-1.005,1.008c-0.556,0-1.007-0.452-1.007-1.008V4.672V3.148z M9.846,3.148c0-0.556,0.45-1.007,1.007-1.007
		c0.555,0,1.005,0.451,1.005,1.007v1.523v1.524c0,0.556-0.448,1.008-1.005,1.008S9.846,6.751,9.846,6.195V4.672V3.148z M6.797,6.195
		c0-0.552,0.448-1.005,1.019-1.008h1v1.008c0,1.125,0.913,2.038,2.037,2.038s2.037-0.913,2.037-2.038V5.187h11.156v1.008
		c0,1.125,0.914,2.038,2.037,2.038c1.125,0,2.039-0.913,2.039-2.038V5.187h1.015c0.554,0.003,1.002,0.456,1.002,1.008v4.054h-5.498
		h-0.08h-0.077h-5.926h-0.081H18.4h-6.021H6.797V6.195z M6.797,23.464h5.066v5.065H6.797V23.464z M12.895,23.464h5.066v5.065h-5.066
		V23.464z M18.992,23.464h5.056v5.065h-5.056V23.464z M30.14,28.529h-5.062v-5.065h5.062V28.529z"/>
</g>
</svg>
