<?xml version="1.0" encoding="utf-8"?>
<!-- Generator: Adobe Illustrator 16.0.4, SVG Export Plug-In . SVG Version: 6.00 Build 0)  -->
<!DOCTYPE svg PUBLIC "-//W3C//DTD SVG 1.1//EN" "http://www.w3.org/Graphics/SVG/1.1/DTD/svg11.dtd">
<svg version="1.1" id="Layer_1" xmlns="http://www.w3.org/2000/svg" xmlns:xlink="http://www.w3.org/1999/xlink" x="0px" y="0px"
	 width="28.525px" height="28.529px" viewBox="0 0 28.525 28.529" enable-background="new 0 0 28.525 28.529" xml:space="preserve">
<g id="Layer_1_1_" display="none">
	<g display="inline">
		<path fill="#3C3F3F" d="M1.638,30.417c0.268,0.066,0.542-0.088,0.61-0.354c1.03-3.843,5.143-3.582,7.645-4.182
			c0.627-0.146,1.122-0.267,1.442-0.402c2.852-1.237,2.719-2.92,2.995-4.371c0.034-0.176-0.027-0.354-0.165-0.476
			c-1.482-1.278-2.734-3.202-3.524-5.416c-0.022-0.062-0.059-0.119-0.104-0.171c-1.045-1.136-1.645-2.337-1.645-3.294
			c0-0.559,0.211-0.934,0.686-1.217c0.146-0.087,0.236-0.24,0.243-0.408C10.042,5.036,13.67,1.026,18.12,1
			c0.005,0,0.104,0.007,0.107,0.007c4.472,0.062,8.078,4.158,8.207,9.324c0.004,0.145,0.065,0.277,0.178,0.369
			c0.312,0.265,0.459,0.601,0.459,1.057c0,0.803-0.428,1.786-1.2,2.772c-0.037,0.047-0.062,0.101-0.084,0.158
			c-0.802,2.536-2.236,4.773-3.938,6.145c-0.146,0.116-0.213,0.302-0.181,0.482c0.278,1.451-0.168,2.928,2.685,4.168
			c0.336,0.146,0.857,0.26,1.521,0.4c2.479,0.537,6.646,0.644,7.661,4.438c0.062,0.224,0.262,0.37,0.481,0.37
			c0.043,0,0.086-0.006,0.13-0.02c0.268-0.069,0.425-0.347,0.354-0.61c-1.174-4.39-5.893-4.61-8.414-5.156
			c-0.585-0.127-1.09-0.234-1.336-0.344c-1.857-0.811-1.631-1.527-2.036-3.153c1.729-1.483,3.175-3.771,3.998-6.337
			c0.877-1.14,1.358-2.314,1.358-3.317c0-0.669-0.215-1.227-0.646-1.663C27.19,4.488,23.19,0.075,18.226,0.004l-0.149-0.002
			c-4.873,0.026-8.889,4.323-9.24,9.83c-0.626,0.46-0.942,1.105-0.942,1.924c0,1.185,0.669,2.6,1.84,3.896
			c0.809,2.223,2.062,4.176,3.556,5.542c-0.401,1.634-0.488,2.559-2.352,3.369c-0.241,0.104-0.723,0.22-1.277,0.354
			c-2.541,0.604-7.193,0.474-8.377,4.891C1.213,30.073,1.371,30.346,1.638,30.417z"/>
	</g>
</g>
<path fill="#3C3F3E" d="M26.329,2.982h-3.526V2.276c0-0.389-0.316-0.705-0.705-0.705s-0.705,0.316-0.705,0.705v0.706H7.288V2.276
	c0-0.389-0.315-0.705-0.705-0.705c-0.389,0-0.706,0.316-0.706,0.705v0.706H2.353c-1.167,0-2.116,0.949-2.116,2.116v19.745
	c0,1.166,0.949,2.115,2.116,2.115h23.976c1.166,0,2.115-0.949,2.115-2.115V5.097C28.444,3.93,27.495,2.982,26.329,2.982z
	 M2.353,4.392h3.525v2.116c0,0.389,0.317,0.705,0.706,0.705c0.389,0,0.705-0.316,0.705-0.705V4.392h14.104v2.116
	c0,0.389,0.316,0.705,0.705,0.705s0.705-0.316,0.705-0.705V4.392h3.526c0.388,0,0.705,0.316,0.705,0.706v3.525H1.647V5.097
	C1.647,4.708,1.964,4.392,2.353,4.392z M26.329,25.547H2.353c-0.389,0-0.706-0.316-0.706-0.704V10.033h25.387v14.809
	C27.034,25.23,26.717,25.547,26.329,25.547z"/>
<path fill="#3C3F3E" d="M10.815,14.264H9.404c-0.389,0-0.705-0.315-0.705-0.705c0-0.389,0.316-0.706,0.705-0.706h1.411
	c0.389,0,0.705,0.316,0.705,0.706C11.52,13.949,11.204,14.264,10.815,14.264z"/>
<path fill="#3C3F3E" d="M15.046,14.264h-1.41c-0.389,0-0.705-0.315-0.705-0.705c0-0.389,0.316-0.706,0.705-0.706h1.41
	c0.389,0,0.705,0.316,0.705,0.706C15.751,13.949,15.434,14.264,15.046,14.264z"/>
<path fill="#3C3F3E" d="M19.277,14.264h-1.411c-0.388,0-0.704-0.315-0.704-0.705c0-0.389,0.316-0.706,0.704-0.706h1.411
	c0.389,0,0.705,0.316,0.705,0.706C19.982,13.949,19.666,14.264,19.277,14.264z"/>
<path fill="#3C3F3E" d="M23.509,14.264h-1.411c-0.389,0-0.705-0.315-0.705-0.705c0-0.389,0.316-0.706,0.705-0.706h1.411
	c0.388,0,0.704,0.316,0.704,0.706C24.213,13.949,23.896,14.264,23.509,14.264z"/>
<path fill="#3C3F3E" d="M6.584,17.085h-1.41c-0.39,0-0.706-0.316-0.706-0.705c0-0.388,0.316-0.704,0.706-0.704h1.41
	c0.389,0,0.705,0.316,0.705,0.704C7.288,16.768,6.973,17.085,6.584,17.085z"/>
<path fill="#3C3F3E" d="M10.815,17.085H9.404c-0.389,0-0.705-0.316-0.705-0.705c0-0.388,0.316-0.704,0.705-0.704h1.411
	c0.389,0,0.705,0.316,0.705,0.704C11.52,16.768,11.204,17.085,10.815,17.085z"/>
<path fill="#3C3F3E" d="M15.046,17.085h-1.41c-0.389,0-0.705-0.316-0.705-0.705c0-0.388,0.316-0.704,0.705-0.704h1.41
	c0.389,0,0.705,0.316,0.705,0.704C15.751,16.768,15.434,17.085,15.046,17.085z"/>
<path fill="#3C3F3E" d="M19.277,17.085h-1.411c-0.388,0-0.704-0.316-0.704-0.705c0-0.388,0.316-0.704,0.704-0.704h1.411
	c0.389,0,0.705,0.316,0.705,0.704C19.982,16.768,19.666,17.085,19.277,17.085z"/>
<path fill="#3C3F3E" d="M23.509,17.085h-1.411c-0.389,0-0.705-0.316-0.705-0.705c0-0.388,0.316-0.704,0.705-0.704h1.411
	c0.388,0,0.704,0.316,0.704,0.704C24.213,16.768,23.896,17.085,23.509,17.085z"/>
<path fill="#3C3F3E" d="M6.584,19.906h-1.41c-0.39,0-0.706-0.317-0.706-0.706c0-0.388,0.316-0.704,0.706-0.704h1.41
	c0.389,0,0.705,0.316,0.705,0.704C7.288,19.589,6.973,19.906,6.584,19.906z"/>
<path fill="#3C3F3E" d="M10.815,19.906H9.404c-0.389,0-0.705-0.317-0.705-0.706c0-0.388,0.316-0.704,0.705-0.704h1.411
	c0.389,0,0.705,0.316,0.705,0.704C11.52,19.589,11.204,19.906,10.815,19.906z"/>
<path fill="#3C3F3E" d="M15.046,19.906h-1.41c-0.389,0-0.705-0.317-0.705-0.706c0-0.388,0.316-0.704,0.705-0.704h1.41
	c0.389,0,0.705,0.316,0.705,0.704C15.751,19.589,15.434,19.906,15.046,19.906z"/>
<path fill="#3C3F3E" d="M19.277,19.906h-1.411c-0.388,0-0.704-0.317-0.704-0.706c0-0.388,0.316-0.704,0.704-0.704h1.411
	c0.389,0,0.705,0.316,0.705,0.704C19.982,19.589,19.666,19.906,19.277,19.906z"/>
<path fill="#3C3F3E" d="M23.509,19.906h-1.411c-0.389,0-0.705-0.317-0.705-0.706c0-0.388,0.316-0.704,0.705-0.704h1.411
	c0.388,0,0.704,0.316,0.704,0.704C24.213,19.589,23.896,19.906,23.509,19.906z"/>
<path fill="#3C3F3E" d="M6.584,22.726h-1.41c-0.39,0-0.706-0.316-0.706-0.704c0-0.389,0.316-0.706,0.706-0.706h1.41
	c0.389,0,0.705,0.317,0.705,0.706C7.288,22.41,6.973,22.726,6.584,22.726z"/>
<path fill="#3C3F3E" d="M10.815,22.726H9.404c-0.389,0-0.705-0.316-0.705-0.704c0-0.389,0.316-0.706,0.705-0.706h1.411
	c0.389,0,0.705,0.317,0.705,0.706C11.52,22.41,11.204,22.726,10.815,22.726z"/>
<path fill="#3C3F3E" d="M15.046,22.726h-1.41c-0.389,0-0.705-0.316-0.705-0.704c0-0.389,0.316-0.706,0.705-0.706h1.41
	c0.389,0,0.705,0.317,0.705,0.706C15.751,22.41,15.434,22.726,15.046,22.726z"/>
<path fill="#3C3F3E" d="M19.277,22.726h-1.411c-0.388,0-0.704-0.316-0.704-0.704c0-0.389,0.316-0.706,0.704-0.706h1.411
	c0.389,0,0.705,0.317,0.705,0.706C19.982,22.41,19.666,22.726,19.277,22.726z"/>
<path fill="#3C3F3E" d="M23.509,22.726h-1.411c-0.389,0-0.705-0.316-0.705-0.704c0-0.389,0.316-0.706,0.705-0.706h1.411
	c0.388,0,0.704,0.317,0.704,0.706C24.213,22.41,23.896,22.726,23.509,22.726z"/>
</svg>
