<?xml version="1.0" encoding="utf-8"?>
<!-- Generator: Adobe Illustrator 16.0.4, SVG Export Plug-In . SVG Version: 6.00 Build 0)  -->
<!DOCTYPE svg PUBLIC "-//W3C//DTD SVG 1.1//EN" "http://www.w3.org/Graphics/SVG/1.1/DTD/svg11.dtd">
<svg version="1.1" xmlns="http://www.w3.org/2000/svg" xmlns:xlink="http://www.w3.org/1999/xlink" x="0px" y="0px"
	 width="22.844px" height="22.843px" viewBox="0 0 22.844 22.843" enable-background="new 0 0 22.844 22.843" xml:space="preserve">
<g id="Layer_1" display="none">
	<g display="inline">
		<path fill="#4DFFBB" d="M22.434,0H0.41C0.186,0,0,0.185,0,0.409v6.83v15.194c0,0.227,0.188,0.41,0.41,0.41h22.024
			c0.225,0,0.41-0.184,0.41-0.41V7.239v-6.83C22.844,0.185,22.659,0,22.434,0z M0.82,0.82h21.204v6.008H0.82V0.82z M0.82,7.648
			h21.204v8.873h-5.098c-0.225,0-0.408,0.184-0.408,0.409v5.094H0.82V7.648L0.82,7.648z M21.444,17.339l-4.107,4.104v-4.104H21.444z
			 M17.917,22.023l4.107-4.104v4.104H17.917z"/>
		<path fill="#4DFFBB" d="M6.623,2.747c-0.592,0-1.074,0.481-1.074,1.076c0,0.596,0.482,1.079,1.074,1.079
			c0.596,0,1.078-0.483,1.078-1.079C7.701,3.229,7.217,2.747,6.623,2.747z M6.369,3.823c0-0.142,0.113-0.256,0.254-0.256
			c0.143,0,0.26,0.114,0.26,0.256C6.881,4.114,6.369,4.114,6.369,3.823z"/>
		<path fill="#4DFFBB" d="M16.215,2.747c-0.592,0-1.076,0.481-1.076,1.076c0,0.596,0.484,1.079,1.076,1.079
			c0.596,0,1.078-0.483,1.078-1.079C17.293,3.229,16.811,2.747,16.215,2.747z M15.959,3.823c0-0.142,0.115-0.256,0.258-0.256
			s0.26,0.114,0.26,0.256C16.473,4.109,15.959,4.113,15.959,3.823z"/>
	</g>
</g>
<g id="Layer_2">
	<path fill="#4DFFBB" d="M19.818,2.405h-0.793V1.604c0-0.894-0.727-1.62-1.621-1.62c-0.893,0-1.619,0.727-1.619,1.62v0.801H6.916
		V1.604c0-0.894-0.727-1.62-1.619-1.62c-0.895,0-1.619,0.727-1.619,1.62v0.801H2.865C1.976,2.412,1.253,3.138,1.253,4.027v3.632
		v4.838v4.847v4.848c0,0.226,0.186,0.409,0.41,0.409h4.848h4.848h4.836h4.846c0.225,0,0.408-0.184,0.408-0.409v-4.848v-4.847V7.659
		V4.027C21.447,3.139,20.724,2.412,19.818,2.405z M10.947,8.069v4.019H6.919V8.069H10.947z M15.785,8.069v4.019h-4.02V8.069H15.785z
		 M20.628,8.069v4.019h-4.025V8.069H20.628z M6.099,12.087H2.074V8.068h4.025V12.087z M2.072,12.907h4.027v4.027H2.072V12.907z
		 M6.919,12.907h4.027v4.027H6.919V12.907z M11.765,12.907h4.021v4.027h-4.021V12.907z M16.603,12.907h4.025v4.027h-4.025V12.907z
		 M16.603,1.604c0-0.442,0.359-0.8,0.803-0.8c0.441,0,0.799,0.358,0.799,0.8v1.211v1.212c0,0.442-0.357,0.801-0.799,0.801
		c-0.443,0-0.803-0.359-0.803-0.801V2.815V1.604z M4.496,1.604c0-0.442,0.357-0.8,0.801-0.8c0.441,0,0.799,0.358,0.799,0.8v1.211
		v1.212c0,0.442-0.355,0.801-0.799,0.801S4.496,4.469,4.496,4.027V2.815V1.604z M2.072,4.027c0-0.439,0.357-0.799,0.811-0.802h0.795
		v0.802c0,0.894,0.727,1.62,1.619,1.62c0.895,0,1.619-0.726,1.619-1.62V3.225h8.869v0.802c0,0.894,0.727,1.62,1.619,1.62
		c0.895,0,1.621-0.726,1.621-1.62V3.225h0.807c0.439,0.003,0.797,0.363,0.797,0.802v3.222h-4.371h-0.062h-0.062h-4.711h-0.062
		h-0.062H6.511H2.074V4.027H2.072z M2.072,17.754h4.027v4.027H2.072V17.754z M6.919,17.754h4.027v4.027H6.919V17.754z
		 M11.765,17.754h4.021v4.027h-4.021V17.754z M20.628,21.781h-4.025v-4.027h4.025V21.781z"/>
</g>
</svg>
