<?xml version="1.0" encoding="utf-8"?>
<!-- Generator: Adobe Illustrator 16.0.4, SVG Export Plug-In . SVG Version: 6.00 Build 0)  -->
<!DOCTYPE svg PUBLIC "-//W3C//DTD SVG 1.1//EN" "http://www.w3.org/Graphics/SVG/1.1/DTD/svg11.dtd">
<svg version="1.1" id="Layer_1" xmlns="http://www.w3.org/2000/svg" xmlns:xlink="http://www.w3.org/1999/xlink" x="0px" y="0px"
	 width="28.525px" height="28.529px" viewBox="0 0 28.525 28.529" enable-background="new 0 0 28.525 28.529" xml:space="preserve">
<g id="Layer_1_1_" display="none">
	<g display="inline">
		<path fill="#3C3F3F" d="M1.638,30.417c0.268,0.066,0.542-0.088,0.61-0.354c1.03-3.843,5.143-3.582,7.645-4.182
			c0.627-0.146,1.122-0.267,1.442-0.402c2.852-1.237,2.719-2.92,2.995-4.371c0.034-0.176-0.027-0.354-0.165-0.476
			c-1.482-1.278-2.734-3.202-3.524-5.416c-0.022-0.062-0.059-0.119-0.104-0.171c-1.045-1.136-1.645-2.337-1.645-3.294
			c0-0.559,0.211-0.934,0.686-1.217c0.146-0.087,0.236-0.24,0.243-0.408C10.042,5.036,13.67,1.026,18.12,1
			c0.005,0,0.104,0.007,0.107,0.007c4.472,0.062,8.078,4.158,8.207,9.324c0.004,0.145,0.065,0.277,0.178,0.369
			c0.312,0.265,0.459,0.601,0.459,1.057c0,0.803-0.428,1.786-1.2,2.772c-0.037,0.047-0.062,0.101-0.084,0.158
			c-0.802,2.536-2.236,4.773-3.938,6.145c-0.146,0.116-0.213,0.302-0.181,0.482c0.278,1.451-0.168,2.928,2.685,4.168
			c0.336,0.146,0.857,0.26,1.521,0.4c2.479,0.537,6.646,0.644,7.661,4.438c0.062,0.224,0.262,0.37,0.481,0.37
			c0.043,0,0.086-0.006,0.13-0.02c0.268-0.069,0.425-0.347,0.354-0.61c-1.174-4.39-5.893-4.61-8.414-5.156
			c-0.585-0.127-1.09-0.234-1.336-0.344c-1.857-0.811-1.631-1.527-2.036-3.153c1.729-1.483,3.175-3.771,3.998-6.337
			c0.877-1.14,1.358-2.314,1.358-3.317c0-0.669-0.215-1.227-0.646-1.663C27.19,4.488,23.19,0.075,18.226,0.004l-0.149-0.002
			c-4.873,0.026-8.889,4.323-9.24,9.83c-0.626,0.46-0.942,1.105-0.942,1.924c0,1.185,0.669,2.6,1.84,3.896
			c0.809,2.223,2.062,4.176,3.556,5.542c-0.401,1.634-0.488,2.559-2.352,3.369c-0.241,0.104-0.723,0.22-1.277,0.354
			c-2.541,0.604-7.193,0.474-8.377,4.891C1.213,30.073,1.371,30.346,1.638,30.417z"/>
	</g>
</g>
<path fill="#3C3F3E" d="M11.152,28.465c-0.06,0-0.12-0.007-0.18-0.023c-1.293-0.332-2.534-0.843-3.69-1.523
	c-0.335-0.198-0.453-0.624-0.268-0.967c0.229-0.42,0.35-0.895,0.35-1.377c0-1.586-1.292-2.879-2.879-2.879
	c-0.48,0-0.957,0.121-1.377,0.351c-0.341,0.185-0.769,0.067-0.965-0.268c-0.68-1.158-1.192-2.397-1.524-3.69
	c-0.094-0.366,0.111-0.743,0.468-0.86c1.172-0.396,1.96-1.493,1.96-2.729c0-1.236-0.787-2.333-1.96-2.728
	c-0.356-0.121-0.562-0.495-0.468-0.86C0.95,9.617,1.462,8.376,2.142,7.22c0.197-0.335,0.625-0.454,0.965-0.268
	c0.419,0.229,0.896,0.35,1.377,0.35c1.588,0,2.879-1.291,2.879-2.878c0-0.48-0.121-0.957-0.35-1.377
	C6.828,2.705,6.946,2.277,7.281,2.08c1.157-0.68,2.397-1.192,3.69-1.524c0.365-0.094,0.742,0.111,0.86,0.468
	c0.395,1.172,1.492,1.96,2.728,1.96c1.235,0,2.333-0.787,2.729-1.96c0.121-0.357,0.494-0.562,0.86-0.468
	c1.293,0.333,2.534,0.845,3.691,1.524c0.334,0.197,0.452,0.625,0.267,0.965c-0.229,0.42-0.351,0.896-0.351,1.377
	c0,1.588,1.293,2.878,2.879,2.878c0.481,0,0.957-0.121,1.377-0.35c0.343-0.186,0.771-0.067,0.967,0.268
	c0.681,1.157,1.191,2.397,1.523,3.69c0.094,0.365-0.109,0.741-0.468,0.86c-1.171,0.395-1.96,1.492-1.96,2.728
	c0,1.235,0.788,2.333,1.96,2.729c0.358,0.121,0.562,0.494,0.468,0.86c-0.332,1.293-0.843,2.533-1.523,3.69
	c-0.196,0.335-0.624,0.452-0.967,0.268c-0.42-0.229-0.895-0.351-1.377-0.351c-1.586,0-2.879,1.293-2.879,2.879
	c0,0.481,0.121,0.957,0.351,1.377c0.186,0.343,0.067,0.769-0.267,0.967c-1.159,0.681-2.398,1.191-3.691,1.523
	c-0.366,0.094-0.742-0.109-0.86-0.468c-0.396-1.171-1.493-1.96-2.729-1.96c-1.236,0-2.333,0.786-2.728,1.96
	c-0.1,0.299-0.379,0.491-0.682,0.491H11.152z M14.562,24.576c1.621,0,3.083,0.903,3.82,2.305c0.749-0.23,1.479-0.531,2.175-0.895
	c-0.157-0.452-0.237-0.93-0.237-1.41c0-2.382,1.939-4.318,4.318-4.318c0.48,0,0.959,0.081,1.409,0.235
	c0.366-0.697,0.667-1.423,0.897-2.172c-1.403-0.737-2.307-2.199-2.307-3.822c0-1.624,0.903-3.083,2.307-3.822
	c-0.233-0.748-0.531-1.477-0.897-2.173c-0.45,0.155-0.929,0.236-1.409,0.236c-2.379,0-4.318-1.938-4.318-4.318
	c0-0.481,0.08-0.959,0.237-1.411c-0.696-0.364-1.425-0.665-2.175-0.896c-0.737,1.402-2.197,2.306-3.82,2.306
	c-1.624,0-3.083-0.904-3.822-2.306c-0.748,0.23-1.477,0.531-2.174,0.896c0.155,0.452,0.236,0.93,0.236,1.411
	c0,2.38-1.938,4.318-4.318,4.318c-0.48,0-0.958-0.081-1.41-0.236C2.711,9.2,2.41,9.927,2.179,10.677
	c1.402,0.737,2.306,2.198,2.306,3.822c0,1.623-0.903,3.083-2.306,3.822c0.231,0.747,0.532,1.475,0.896,2.172
	c0.452-0.154,0.93-0.235,1.41-0.235c2.381,0,4.318,1.937,4.318,4.318c0,0.48-0.081,0.958-0.236,1.41
	c0.697,0.363,1.424,0.664,2.174,0.895C11.477,25.479,12.939,24.576,14.562,24.576z"/>
<path fill="#3C3F3E" d="M14.562,18.818c-2.381,0-4.318-1.937-4.318-4.318c0-2.38,1.938-4.318,4.318-4.318S18.88,12.12,18.88,14.5
	C18.88,16.882,16.943,18.818,14.562,18.818z M14.562,11.621c-1.588,0-2.879,1.291-2.879,2.878c0,1.589,1.291,2.879,2.879,2.879
	c1.588,0,2.878-1.29,2.878-2.879C17.44,12.912,16.15,11.621,14.562,11.621z"/>
</svg>
