<?xml version="1.0" encoding="utf-8"?>
<!-- Generator: Adobe Illustrator 16.0.4, SVG Export Plug-In . SVG Version: 6.00 Build 0)  -->
<!DOCTYPE svg PUBLIC "-//W3C//DTD SVG 1.1//EN" "http://www.w3.org/Graphics/SVG/1.1/DTD/svg11.dtd">
<svg version="1.1" id="Layer_1" xmlns="http://www.w3.org/2000/svg" xmlns:xlink="http://www.w3.org/1999/xlink" x="0px" y="0px"
	 width="32px" height="32px" viewBox="0 0 32 32" enable-background="new 0 0 32 32" xml:space="preserve">
<g>
	<path fill="#4DFFBB" d="M15.999,11c-2.729,0-4.971,2.22-4.999,4.949c-0.028,2.757,2.192,5.021,4.949,5.051c0.001,0,0.05,0,0.052,0
		c2.729,0,4.972-2.221,4.999-4.949C21.027,13.294,18.809,11.028,15.999,11z M16.001,20v0.5L15.959,20
		c-2.205-0.021-3.981-1.835-3.959-4.041C12.022,13.776,13.816,12,16.041,12c2.205,0.022,3.98,1.835,3.959,4.041
		C19.979,18.225,18.184,20,16.001,20z"/>
	<circle fill="#4DFFBB" cx="1" cy="16" r="1"/>
	<circle fill="#4DFFBB" cx="31" cy="16" r="1"/>
	<circle fill="#4DFFBB" cx="16" cy="1" r="1"/>
	<circle fill="#4DFFBB" cx="16" cy="31" r="1"/>
	<circle fill="#4DFFBB" cx="5" cy="5" r="1"/>
	<circle fill="#4DFFBB" cx="27" cy="27" r="1"/>
	<circle fill="#4DFFBB" cx="27" cy="5" r="1"/>
	<circle fill="#4DFFBB" cx="5" cy="27" r="1"/>
	<path fill="#4DFFBB" d="M24,16.076V8.5C24,8.224,23.775,8,23.5,8h-7.501C11.633,8,8.045,11.552,8,15.919
		c-0.021,2.138,0.79,4.154,2.286,5.681c1.496,1.527,3.496,2.379,5.633,2.4c0.001,0,0.081,0,0.083,0l0,0
		C20.367,24,23.955,20.448,24,16.076z M16.001,23v0.5L15.929,23c-1.87-0.02-3.62-0.766-4.929-2.102s-2.019-3.101-2-4.97
		C9.039,12.108,12.178,9,16.076,9l0,0H23v7.071C22.961,19.893,19.82,23.001,16.001,23z"/>
</g>
</svg>
