<?xml version="1.0" encoding="utf-8"?>
<!-- Generator: Adobe Illustrator 16.0.4, SVG Export Plug-In . SVG Version: 6.00 Build 0)  -->
<!DOCTYPE svg PUBLIC "-//W3C//DTD SVG 1.1//EN" "http://www.w3.org/Graphics/SVG/1.1/DTD/svg11.dtd">
<svg version="1.1" id="Layer_1" xmlns="http://www.w3.org/2000/svg" xmlns:xlink="http://www.w3.org/1999/xlink" x="0px" y="0px"
	 width="24px" height="32px" viewBox="0 0 24 32" enable-background="new 0 0 24 32" xml:space="preserve">
<g>
	<path fill="#40FFB9" d="M12,0C5.383,0,0,5.394,0,12.022c0,9.927,11.201,19.458,11.678,19.86C11.771,31.961,11.886,32,12,32
		c0.113,0,0.226-0.038,0.318-0.114C12.795,31.492,24,22.124,24,12.022C24,5.394,18.617,0,12,0z M12.002,30.838
		C10.161,29.193,1,20.579,1,12.022C1,5.944,5.935,1,12,1c6.064,0,11,4.944,11,11.022C23,20.725,13.848,29.215,12.002,30.838z"/>
	<path fill="#40FFB9" d="M12,6c-3.309,0-6,2.691-6,6s2.691,6,6,6c3.309,0,6-2.691,6-6S15.309,6,12,6z M12,17c-2.757,0-5-2.243-5-5
		s2.243-5,5-5s5,2.243,5,5S14.757,17,12,17z"/>
</g>
</svg>
