<?xml version="1.0" encoding="utf-8"?>
<!-- Generator: Adobe Illustrator 16.0.4, SVG Export Plug-In . SVG Version: 6.00 Build 0)  -->
<!DOCTYPE svg PUBLIC "-//W3C//DTD SVG 1.1//EN" "http://www.w3.org/Graphics/SVG/1.1/DTD/svg11.dtd">
<svg version="1.1" id="Layer_1" xmlns="http://www.w3.org/2000/svg" xmlns:xlink="http://www.w3.org/1999/xlink" x="0px" y="0px"
	 width="76.5px" height="93.417px" viewBox="7 7 76.5 93.417" enable-background="new 7 7 76.5 93.417" xml:space="preserve">
<g id="Layer_2" display="none">
	<rect display="inline" fill="#3C3F3E" width="90" height="110"/>
</g>
<g id="Layer_1_1_">
	<ellipse fill="none" stroke="#74FFCA" stroke-width="4" stroke-miterlimit="10" cx="45.425" cy="45.076" rx="35.029" ry="35.686"/>
	<g>
		<path fill="#74FFCA" d="M36.83,58.805c0,2.326-1.886,4.067-4.163,4.115v0.05h-2.663c-2.373,0-4.309-1.792-4.309-4.164V36.327
			c0.048-0.532,0.483-0.969,1.016-0.969h2.469v22.818c0,1.016,0.774,1.84,1.791,1.84h0.532c1.017,0,1.84-0.824,1.84-1.84V35.358
			h3.484L36.83,58.805L36.83,58.805z"/>
		<path fill="#74FFCA" d="M65.59,48.59v9.926c-0.048,2.372-1.937,4.26-4.309,4.26h-6.294v-33.89h6.294
			c2.372,0,4.262,1.888,4.309,4.26v9.925c0,0,0.049,2.13-1.986,2.76C65.639,46.458,65.59,48.59,65.59,48.59z M62.103,34.113
			c0-1.259-0.871-1.743-1.789-1.743h-1.889v11.862h1.889c0.918,0,1.789-0.436,1.789-1.986V34.113z M62.103,49.364
			c0-1.5-0.871-1.937-1.789-1.937h-1.889v11.911h1.889c0.918,0,1.789-0.484,1.789-1.791V49.364z"/>
	</g>
	<line fill="none" stroke="#74FFCA" stroke-width="4" stroke-miterlimit="10" x1="25.536" y1="31.031" x2="36.967" y2="31.031"/>
	<g enable-background="new    ">
		<path fill="#74FFCA" d="M30.292,87.971v10.157c0,1.319-1.062,2.38-2.379,2.38c-1.318,0-2.38-1.061-2.38-2.38V87.971h0.952v10.157
			c0,0.787,0.641,1.429,1.428,1.429c0.787,0,1.427-0.642,1.427-1.429V87.971H30.292z"/>
		<path fill="#74FFCA" d="M31.959,100.324v-8.93h0.659l0.165,0.694c0.311-0.476,0.823-0.786,1.391-0.786
			c0.952,0,1.739,0.878,1.739,1.976v7.046H34.96v-7.046c0-0.566-0.457-1.024-1.025-1.024c-0.567,0-1.024,0.458-1.024,1.024v7.046
			H31.959z"/>
		<path fill="#74FFCA" d="M41.35,100.324H40.69l-0.165-0.695c-0.311,0.476-0.824,0.788-1.391,0.788
			c-0.952,0-1.739-0.879-1.739-1.978v-5.161c0-1.098,0.787-1.976,1.739-1.976c0.495,0,0.952,0.237,1.263,0.622v-3.844l0.952-0.11
			V100.324z M40.398,93.278c0-0.566-0.458-1.024-1.025-1.024s-1.025,0.458-1.025,1.024v5.161c0,0.568,0.458,1.024,1.025,1.024
			s1.025-0.456,1.025-1.024V93.278z"/>
		<path fill="#74FFCA" d="M46.769,97.269v1.171c0,1.099-0.879,1.978-1.977,1.978c-1.098,0-1.977-0.879-1.977-1.978v-5.161
			c0-1.098,0.879-1.976,1.977-1.976c1.098,0,1.977,0.878,1.977,1.976v2.746h-3.002v2.415c0,0.568,0.458,1.024,1.025,1.024
			c0.566,0,1.025-0.456,1.025-1.024v-1.061L46.769,97.269z M43.767,95.072h2.051v-1.794c0-0.566-0.459-1.024-1.025-1.024
			c-0.568,0-1.025,0.458-1.025,1.024V95.072z"/>
		<path fill="#74FFCA" d="M50.888,92.254H50.21c-0.622,0-1.099,0.494-1.099,1.116v6.954H48.16v-8.93h0.659l0.165,0.694
			c0.311-0.476,0.933-0.786,1.903-0.786V92.254z"/>
		<path fill="#74FFCA" d="M51.858,88.081l0.951-0.11v3.954c0.312-0.385,0.769-0.622,1.264-0.622c0.951,0,1.738,0.878,1.738,1.976
			v5.161c0,1.099-0.787,1.978-1.738,1.978c-0.568,0-1.08-0.312-1.391-0.788l-0.165,0.695h-0.659V88.081z M52.81,98.439
			c0,0.568,0.458,1.024,1.024,1.024c0.569,0,1.025-0.456,1.025-1.024v-5.161c0-0.566-0.456-1.024-1.025-1.024
			c-0.566,0-1.024,0.458-1.024,1.024V98.439z"/>
		<path fill="#74FFCA" d="M60.975,99.044c0,0.183,0.146,0.329,0.329,0.329v0.951c-0.385,0-0.732-0.165-0.971-0.42
			c-0.348,0.329-0.823,0.513-1.336,0.513c-1.098,0-1.977-0.879-1.977-1.978v-1.006c0-0.915,0.806-1.373,0.806-1.373l1.409-0.806
			c0,0,0.787-0.457,0.787-1.189v-0.896c0-0.513-0.402-0.915-0.916-0.915c-0.512,0-0.915,0.402-0.915,0.915v1.062l-0.951,0.11v-1.172
			c0-1.025,0.842-1.866,1.866-1.866c1.025,0,1.868,0.841,1.868,1.866V99.044z M57.972,98.439c0,0.568,0.459,1.024,1.025,1.024
			c0.568,0,1.025-0.456,1.025-1.024v-2.599c-0.146,0.146-0.311,0.239-0.311,0.239l-1.41,0.804c0,0-0.33,0.183-0.33,0.55V98.439z"/>
		<path fill="#74FFCA" d="M65.294,92.254h-0.678c-0.621,0-1.097,0.494-1.097,1.116v6.954h-0.952v-8.93h0.658l0.165,0.694
			c0.312-0.476,0.934-0.786,1.903-0.786V92.254z"/>
	</g>
	<circle fill="#74FFCA" cx="46.228" cy="45.787" r="2.391"/>
</g>
</svg>
