<?xml version="1.0" encoding="utf-8"?>
<!-- Generator: Adobe Illustrator 16.0.4, SVG Export Plug-In . SVG Version: 6.00 Build 0)  -->
<!DOCTYPE svg PUBLIC "-//W3C//DTD SVG 1.1//EN" "http://www.w3.org/Graphics/SVG/1.1/DTD/svg11.dtd">
<svg version="1.1" id="Layer_1" xmlns="http://www.w3.org/2000/svg" xmlns:xlink="http://www.w3.org/1999/xlink" x="0px" y="0px"
	 width="39.871px" height="50.254px" viewBox="27.782 22.736 39.871 50.254" enable-background="new 27.782 22.736 39.871 50.254"
	 xml:space="preserve">
<g id="Layer_2" display="none">
	<rect display="inline" fill="#3C3F3E" width="90" height="110"/>
</g>
<g id="Layer_1_1_">
	<ellipse fill="none" stroke="#74FFCA" stroke-width="2" stroke-miterlimit="10" cx="47.718" cy="43.027" rx="18.936" ry="19.291"/>
	<g>
		<path fill="#74FFCA" d="M43.071,50.447c0,1.257-1.02,2.198-2.25,2.224v0.027h-1.439c-1.283,0-2.329-0.968-2.329-2.251V38.296
			c0.026-0.287,0.262-0.524,0.549-0.524h1.335v12.334c0,0.55,0.418,0.995,0.968,0.995h0.288c0.55,0,0.995-0.445,0.995-0.995V37.773
			h1.883L43.071,50.447L43.071,50.447z"/>
		<path fill="#74FFCA" d="M58.618,44.925v5.365c-0.026,1.282-1.048,2.303-2.329,2.303h-3.402v-18.32h3.402
			c1.281,0,2.303,1.02,2.329,2.303v5.365c0,0,0.026,1.151-1.074,1.491C58.645,43.773,58.618,44.925,58.618,44.925z M56.732,37.1
			c0-0.68-0.471-0.942-0.967-0.942h-1.021v6.412h1.021c0.496,0,0.967-0.236,0.967-1.073V37.1z M56.732,45.344
			c0-0.811-0.471-1.046-0.967-1.046h-1.021v6.438h1.021c0.496,0,0.967-0.261,0.967-0.968V45.344z"/>
	</g>
	<line fill="none" stroke="#74FFCA" stroke-width="2" stroke-miterlimit="10" x1="36.966" y1="35.434" x2="43.146" y2="35.434"/>
	<g enable-background="new    ">
		<path fill="#74FFCA" d="M39.91,65.231v6.285c0,0.817-0.657,1.474-1.472,1.474c-0.816,0-1.473-0.656-1.473-1.474v-6.285h0.589
			v6.285c0,0.486,0.396,0.884,0.884,0.884c0.487,0,0.883-0.397,0.883-0.884v-6.285H39.91z"/>
		<path fill="#74FFCA" d="M40.942,72.876V67.35h0.408l0.102,0.43c0.192-0.295,0.51-0.486,0.861-0.486
			c0.589,0,1.076,0.543,1.076,1.223v4.36H42.8v-4.36c0-0.351-0.284-0.635-0.635-0.635c-0.351,0-0.634,0.284-0.634,0.635v4.36H40.942
			z"/>
		<path fill="#74FFCA" d="M46.754,72.876h-0.408l-0.103-0.431c-0.191,0.296-0.509,0.489-0.86,0.489
			c-0.589,0-1.076-0.544-1.076-1.225v-3.194c0-0.68,0.487-1.223,1.076-1.223c0.305,0,0.589,0.146,0.781,0.386v-2.38l0.59-0.067
			V72.876z M46.164,68.516c0-0.351-0.283-0.635-0.634-0.635c-0.352,0-0.634,0.284-0.634,0.635v3.194
			c0,0.351,0.283,0.634,0.634,0.634c0.351,0,0.634-0.283,0.634-0.634V68.516z"/>
		<path fill="#74FFCA" d="M50.106,70.985v0.725c0,0.681-0.543,1.225-1.223,1.225c-0.681,0-1.223-0.544-1.223-1.225v-3.194
			c0-0.68,0.542-1.223,1.223-1.223c0.68,0,1.223,0.543,1.223,1.223v1.699h-1.855v1.495c0,0.351,0.282,0.634,0.633,0.634
			s0.636-0.283,0.636-0.634v-0.656L50.106,70.985z M48.251,69.626h1.269v-1.11c0-0.351-0.285-0.635-0.636-0.635
			s-0.633,0.284-0.633,0.635V69.626z"/>
		<path fill="#74FFCA" d="M52.656,67.881h-0.419c-0.385,0-0.679,0.307-0.679,0.691v4.304h-0.59V67.35h0.407l0.104,0.43
			c0.191-0.295,0.576-0.486,1.177-0.486V67.881z"/>
		<path fill="#74FFCA" d="M53.258,65.299l0.588-0.067v2.447c0.192-0.239,0.477-0.386,0.781-0.386c0.59,0,1.077,0.543,1.077,1.223
			v3.194c0,0.681-0.487,1.225-1.077,1.225c-0.35,0-0.668-0.193-0.859-0.489l-0.103,0.431h-0.407V65.299z M53.846,71.71
			c0,0.351,0.284,0.634,0.635,0.634s0.635-0.283,0.635-0.634v-3.194c0-0.351-0.284-0.635-0.635-0.635s-0.635,0.284-0.635,0.635
			V71.71z"/>
		<path fill="#74FFCA" d="M58.899,72.084c0,0.113,0.091,0.204,0.203,0.204v0.588c-0.237,0-0.453-0.102-0.6-0.261
			c-0.216,0.204-0.51,0.319-0.828,0.319c-0.679,0-1.222-0.544-1.222-1.225v-0.624c0-0.566,0.498-0.849,0.498-0.849l0.873-0.499
			c0,0,0.486-0.281,0.486-0.736v-0.555c0-0.316-0.248-0.566-0.566-0.566c-0.316,0-0.566,0.25-0.566,0.566v0.657l-0.59,0.067v-0.725
			c0-0.635,0.521-1.154,1.156-1.154c0.634,0,1.155,0.52,1.155,1.154V72.084z M57.04,71.71c0,0.351,0.285,0.634,0.635,0.634
			c0.352,0,0.636-0.283,0.636-0.634v-1.609c-0.09,0.092-0.192,0.148-0.192,0.148l-0.874,0.498c0,0-0.204,0.114-0.204,0.339V71.71z"
			/>
		<path fill="#74FFCA" d="M61.573,67.881h-0.421c-0.384,0-0.678,0.307-0.678,0.691v4.304h-0.589V67.35h0.406l0.104,0.43
			c0.191-0.295,0.576-0.486,1.178-0.486V67.881z"/>
	</g>
	<circle fill="#74FFCA" cx="48.151" cy="43.41" r="1.292"/>
</g>
</svg>
