<?xml version="1.0" encoding="utf-8"?>
<!-- Generator: Adobe Illustrator 16.0.4, SVG Export Plug-In . SVG Version: 6.00 Build 0)  -->
<!DOCTYPE svg PUBLIC "-//W3C//DTD SVG 1.1//EN" "http://www.w3.org/Graphics/SVG/1.1/DTD/svg11.dtd">
<svg version="1.1" id="Layer_1" xmlns="http://www.w3.org/2000/svg" xmlns:xlink="http://www.w3.org/1999/xlink" x="0px" y="0px"
	 width="39.062px" height="22.321px" viewBox="8.688 4.965 39.062 22.321" enable-background="new 8.688 4.965 39.062 22.321"
	 xml:space="preserve">
<g>
	<path fill="#4DFFB8" d="M40.426,12.637c-1.342,0-2.597,0.37-3.681,1.002l-4.743-7.28h6.695c-0.009,0.348-0.09,0.929-0.486,1.385
		c-0.41,0.47-1.073,0.708-1.971,0.708c-0.191,0-0.349,0.156-0.349,0.348c0,0.193,0.157,0.349,0.349,0.349
		c1.109,0,1.948-0.317,2.495-0.945c0.81-0.932,0.647-2.187,0.641-2.24c-0.023-0.172-0.171-0.302-0.347-0.302h-7.672
		c-0.128,0-0.246,0.07-0.307,0.183s-0.056,0.25,0.016,0.357l1.974,3.03H21.974l-2.15-3.57h3.861c0.193,0,0.35-0.156,0.35-0.349
		c0-0.192-0.157-0.349-0.35-0.349h-6.278c-0.192,0-0.348,0.156-0.348,0.349c0,0.193,0.156,0.349,0.348,0.349h1.615
		c0.007,0.016,0.008,0.033,0.017,0.049l2.38,3.949l-2.13,3.76c-0.987-0.496-2.098-0.783-3.276-0.783
		c-4.039,0-7.324,3.286-7.324,7.324c0,4.039,3.285,7.325,7.324,7.325c3.897,0,7.084-3.063,7.268-6.977h7.729
		c0.021,0.405-0.066,0.956-0.45,1.389c-0.412,0.468-1.083,0.704-1.991,0.704c-0.193,0-0.35,0.156-0.35,0.349
		c0,0.194,0.157,0.349,0.35,0.349c1.121,0,1.97-0.318,2.521-0.946c0.796-0.909,0.646-2.118,0.64-2.169
		c-0.023-0.172-0.171-0.305-0.345-0.305h-2.741l4.916-9.652l2.602,3.993c-1.849,1.331-3.059,3.493-3.059,5.94
		c0,4.039,3.286,7.325,7.324,7.325c4.039,0,7.324-3.286,7.324-7.325C47.75,15.923,44.465,12.637,40.426,12.637z M32.826,9.848
		l-4.777,9.464l-5.654-9.464H32.826z M21.831,10.346l5.627,9.334h-4.135c-0.096-2.491-1.438-4.665-3.427-5.916L21.831,10.346z
		 M22.625,19.68h-6.082l3.009-5.311C21.329,15.499,22.53,17.447,22.625,19.68z M16.012,26.589c-3.653,0-6.626-2.974-6.626-6.628
		c0-3.653,2.973-6.625,6.626-6.625c1.053,0,2.047,0.253,2.933,0.692l-3.304,5.829c-0.062,0.107-0.061,0.24,0.002,0.348
		c0.062,0.105,0.178,0.174,0.301,0.103h6.674C22.401,23.837,19.526,26.589,16.012,26.589z M40.426,26.589
		c-3.653,0-6.627-2.974-6.627-6.628c0-2.202,1.085-4.151,2.743-5.356l3.66,5.616c0.067,0.102,0.179,0.158,0.292,0.158
		c0.064,0,0.131-0.018,0.19-0.057c0.16-0.104,0.207-0.321,0.102-0.48l-3.66-5.617c0.974-0.563,2.1-0.889,3.3-0.889
		c3.654,0,6.627,2.972,6.627,6.625C47.053,23.615,44.08,26.589,40.426,26.589z"/>
</g>
</svg>
