<?xml version="1.0" encoding="utf-8"?>
<!-- Generator: Adobe Illustrator 16.0.4, SVG Export Plug-In . SVG Version: 6.00 Build 0)  -->
<!DOCTYPE svg PUBLIC "-//W3C//DTD SVG 1.1//EN" "http://www.w3.org/Graphics/SVG/1.1/DTD/svg11.dtd">
<svg version="1.1" id="Layer_1" xmlns="http://www.w3.org/2000/svg" xmlns:xlink="http://www.w3.org/1999/xlink" x="0px" y="0px"
	 width="22.844px" height="22.843px" viewBox="0 0 22.844 22.843" enable-background="new 0 0 22.844 22.843" xml:space="preserve">
<g>
	<path fill="#4DFFBB" d="M22.434,0H0.41C0.186,0,0,0.185,0,0.409v6.83v15.194c0,0.227,0.188,0.41,0.41,0.41h22.024
		c0.225,0,0.41-0.184,0.41-0.41V7.239v-6.83C22.844,0.185,22.659,0,22.434,0z M0.82,0.82h21.204v6.008H0.82V0.82z M0.82,7.648
		h21.204v8.873h-5.098c-0.225,0-0.408,0.184-0.408,0.409v5.094H0.82V7.648L0.82,7.648z M21.444,17.339l-4.107,4.104v-4.104H21.444z
		 M17.917,22.023l4.107-4.104v4.104H17.917z"/>
	<path fill="#4DFFBB" d="M6.623,2.747c-0.592,0-1.074,0.481-1.074,1.076c0,0.596,0.482,1.079,1.074,1.079
		c0.596,0,1.078-0.483,1.078-1.079C7.701,3.229,7.217,2.747,6.623,2.747z M6.369,3.823c0-0.142,0.113-0.256,0.254-0.256
		c0.143,0,0.26,0.114,0.26,0.256C6.881,4.114,6.369,4.114,6.369,3.823z"/>
	<path fill="#4DFFBB" d="M16.215,2.747c-0.592,0-1.076,0.481-1.076,1.076c0,0.596,0.484,1.079,1.076,1.079
		c0.596,0,1.078-0.483,1.078-1.079C17.293,3.229,16.811,2.747,16.215,2.747z M15.959,3.823c0-0.142,0.115-0.256,0.258-0.256
		s0.26,0.114,0.26,0.256C16.473,4.109,15.959,4.113,15.959,3.823z"/>
</g>
</svg>
