<?xml version="1.0" encoding="utf-8"?>
<!-- Generator: Adobe Illustrator 16.0.4, SVG Export Plug-In . SVG Version: 6.00 Build 0)  -->
<!DOCTYPE svg PUBLIC "-//W3C//DTD SVG 1.1//EN" "http://www.w3.org/Graphics/SVG/1.1/DTD/svg11.dtd">
<svg version="1.1" id="Layer_1" xmlns="http://www.w3.org/2000/svg" xmlns:xlink="http://www.w3.org/1999/xlink" x="0px" y="0px"
	 width="9.946px" height="8.876px" viewBox="0 0 9.946 8.876" enable-background="new 0 0 9.946 8.876" xml:space="preserve">
<g>
	<path fill="#4DFFBB" d="M4.149,0.535L0.155,7.456c-0.406,0.705,0.027,1.42,0.82,1.42h7.989c0.58,0,0.982-0.352,0.982-0.855
		c0-0.186-0.053-0.375-0.162-0.561L5.788,0.533C5.591,0.193,5.29,0,4.967,0C4.645,0,4.346,0.193,4.149,0.535z M5.079,0.945
		l3.997,6.921C9.126,7.954,9.13,8.007,9.13,8.021l0.004,0.002c-0.01,0.01-0.059,0.035-0.168,0.035H0.975
		c-0.109,0-0.158-0.025-0.164-0.039c0-0.012,0.004-0.064,0.055-0.154l3.996-6.919C4.915,0.85,4.963,0.822,4.965,0.816
		C4.977,0.822,5.026,0.85,5.079,0.945z"/>
</g>
</svg>
