<?xml version="1.0" encoding="utf-8"?>
<!-- Generator: Adobe Illustrator 16.0.4, SVG Export Plug-In . SVG Version: 6.00 Build 0)  -->
<!DOCTYPE svg PUBLIC "-//W3C//DTD SVG 1.1//EN" "http://www.w3.org/Graphics/SVG/1.1/DTD/svg11.dtd">
<svg version="1.1" id="Layer_1" xmlns="http://www.w3.org/2000/svg" xmlns:xlink="http://www.w3.org/1999/xlink" x="0px" y="0px"
	 width="26.357px" height="22.2px" viewBox="5.336 4.872 26.357 22.2" enable-background="new 5.336 4.872 26.357 22.2"
	 xml:space="preserve">
<g>
	<path fill="#4DFFB8" d="M19.252,5.149c-0.402-0.37-1.07-0.37-1.472,0L5.504,12.556c-0.104,0.062-0.168,0.175-0.168,0.296v13.132
		c0,0.6,0.491,1.088,1.093,1.088h24.173c0.603,0,1.092-0.488,1.092-1.088V12.853c0-0.122-0.063-0.234-0.166-0.296L19.252,5.149z
		 M18.171,5.724c0.024-0.015,0.046-0.032,0.066-0.051c0.075-0.074,0.174-0.116,0.277-0.116c0.105,0,0.204,0.042,0.277,0.116
		c0.021,0.019,0.044,0.037,0.067,0.051l11.956,7.213l-8.66,5.161c-0.166,0.099-0.219,0.31-0.121,0.476
		c0.065,0.108,0.179,0.17,0.298,0.17c0.062,0,0.122-0.016,0.176-0.048l8.5-5.06v12.323l-11.753-7.818
		c-0.373-0.297-1.107-0.297-1.456-0.018L6.022,25.956v-12.32l8.499,5.06c0.055,0.032,0.117,0.048,0.177,0.048
		c0.118,0,0.233-0.062,0.298-0.17c0.098-0.165,0.044-0.377-0.121-0.476l-8.661-5.161L18.171,5.724z M30.376,26.378H6.648
		l11.561-7.694c0.12-0.096,0.494-0.095,0.637,0.019L30.376,26.378z"/>
	<path fill="#4DFFB8" d="M9.839,13.886H27.19c0.19,0,0.347-0.156,0.347-0.347c0-0.192-0.156-0.347-0.347-0.347H9.839
		c-0.19,0-0.346,0.155-0.346,0.347C9.493,13.729,9.649,13.886,9.839,13.886z"/>
</g>
</svg>
