<?xml version="1.0" encoding="utf-8"?>
<!-- Generator: Adobe Illustrator 16.0.4, SVG Export Plug-In . SVG Version: 6.00 Build 0)  -->
<!DOCTYPE svg PUBLIC "-//W3C//DTD SVG 1.1//EN" "http://www.w3.org/Graphics/SVG/1.1/DTD/svg11.dtd">
<svg version="1.1" id="Layer_1" xmlns="http://www.w3.org/2000/svg" xmlns:xlink="http://www.w3.org/1999/xlink" x="0px" y="0px"
	 width="42px" height="32px" viewBox="0 0 42 32" enable-background="new 0 0 42 32" xml:space="preserve">
<g>
	<path fill="#3C3F3E" d="M37,29c1.195,0,2-0.805,2-2V0.5C39,0.224,38.775,0,38.5,0S38,0.224,38,0.5V27c0,0.87-0.627,1-1,1
		c-0.104,0-1-0.027-1-1V0.5C36,0.224,35.775,0,35.5,0S35,0.224,35,0.5V27C35,28.312,36.006,29,37,29z"/>
	<path fill="#3C3F3E" d="M4.5,21h10c0.276,0,0.5-0.225,0.5-0.5v-9c0-0.276-0.224-0.5-0.5-0.5h-10C4.224,11,4,11.224,4,11.5v9
		C4,20.775,4.224,21,4.5,21z M5,12h9v8H5V12z"/>
	<path fill="#3C3F3E" d="M4.5,8h24C28.775,8,29,7.776,29,7.5v-4C29,3.224,28.775,3,28.5,3h-24C4.224,3,4,3.224,4,3.5v4
		C4,7.776,4.224,8,4.5,8z M5,4h23v3H5V4z"/>
	<path fill="#3C3F3E" d="M28.5,11h-10c-0.276,0-0.5,0.224-0.5,0.5s0.224,0.5,0.5,0.5h10c0.275,0,0.5-0.224,0.5-0.5
		S28.775,11,28.5,11z"/>
	<path fill="#3C3F3E" d="M28.5,14h-10c-0.276,0-0.5,0.224-0.5,0.5s0.224,0.5,0.5,0.5h10c0.275,0,0.5-0.224,0.5-0.5
		S28.775,14,28.5,14z"/>
	<path fill="#3C3F3E" d="M28.5,17h-10c-0.276,0-0.5,0.225-0.5,0.5s0.224,0.5,0.5,0.5h10c0.275,0,0.5-0.225,0.5-0.5
		S28.775,17,28.5,17z"/>
	<path fill="#3C3F3E" d="M28.5,20h-10c-0.276,0-0.5,0.225-0.5,0.5s0.224,0.5,0.5,0.5h10c0.275,0,0.5-0.225,0.5-0.5
		S28.775,20,28.5,20z"/>
	<path fill="#3C3F3E" d="M28.5,23h-10c-0.276,0-0.5,0.225-0.5,0.5s0.224,0.5,0.5,0.5h10c0.275,0,0.5-0.225,0.5-0.5
		S28.775,23,28.5,23z"/>
	<path fill="#3C3F3E" d="M4.5,24h10c0.276,0,0.5-0.225,0.5-0.5S14.776,23,14.5,23h-10C4.224,23,4,23.225,4,23.5S4.224,24,4.5,24z"/>
	<path fill="#3C3F3E" d="M28.5,26h-10c-0.276,0-0.5,0.225-0.5,0.5s0.224,0.5,0.5,0.5h10c0.275,0,0.5-0.225,0.5-0.5
		S28.775,26,28.5,26z"/>
	<path fill="#3C3F3E" d="M4.5,27h10c0.276,0,0.5-0.225,0.5-0.5S14.776,26,14.5,26h-10C4.224,26,4,26.225,4,26.5S4.224,27,4.5,27z"/>
	<path fill="#3C3F3E" d="M5,31.947h32c0.008,0,0.016,0,0.02,0c0.008,0,0.014-0.004,0.021-0.004c2.709-0.022,4.908-2.229,4.908-4.943
		V0.5c0-0.247-0.2-0.447-0.447-0.447s-0.446,0.2-0.446,0.447V27c0,2.234-1.818,4.053-4.054,4.053S32.947,29.234,32.947,27V0.5
		c0-0.247-0.2-0.447-0.447-0.447h-32c-0.247,0-0.447,0.2-0.447,0.447V27C0.053,29.729,2.272,31.947,5,31.947z M0.947,0.947h31.105
		V27c0,0.307,0.037,0.604,0.091,0.895c0.01,0.059,0.02,0.116,0.032,0.174c0.062,0.277,0.144,0.547,0.251,0.806
		c0.02,0.047,0.042,0.091,0.062,0.137c0.109,0.242,0.234,0.476,0.379,0.695c0.017,0.024,0.029,0.052,0.047,0.077
		c0.158,0.23,0.338,0.443,0.531,0.643c0.041,0.043,0.082,0.085,0.127,0.127c0.186,0.18,0.382,0.352,0.594,0.5H5
		c-2.234,0-4.053-1.818-4.053-4.053V0.947z"/>
</g>
</svg>
