<?xml version="1.0" encoding="utf-8"?>
<!-- Generator: Adobe Illustrator 16.0.4, SVG Export Plug-In . SVG Version: 6.00 Build 0)  -->
<!DOCTYPE svg PUBLIC "-//W3C//DTD SVG 1.1//EN" "http://www.w3.org/Graphics/SVG/1.1/DTD/svg11.dtd">
<svg version="1.1" id="Layer_1" xmlns="http://www.w3.org/2000/svg" xmlns:xlink="http://www.w3.org/1999/xlink" x="0px" y="0px"
	 width="146.672px" height="192.203px" viewBox="0 0 146.672 192.203" enable-background="new 0 0 146.672 192.203"
	 xml:space="preserve">
<ellipse fill="none" stroke="#FFFFFF" stroke-width="6" stroke-miterlimit="10" cx="73.336" cy="74.655" rx="70.336" ry="71.656"/>
<g>
	<path fill="#FFFFFF" d="M56.08,102.221c0,4.667-3.791,8.166-8.36,8.264v0.099h-5.347c-4.763,0-8.651-3.599-8.651-8.361V57.088
		c0.097-1.069,0.972-1.944,2.041-1.944h4.958v45.814c0,2.041,1.556,3.694,3.597,3.694h1.069c2.042,0,3.694-1.653,3.694-3.694V55.144
		h6.999V102.221z"/>
	<path fill="#FFFFFF" d="M113.827,81.71v19.929c-0.098,4.763-3.889,8.555-8.652,8.555H92.538v-68.05h12.637
		c4.765,0,8.556,3.792,8.652,8.555v19.929c0,0,0.098,4.277-3.986,5.541C113.924,77.432,113.827,81.71,113.827,81.71z
		 M106.827,52.643c0-2.528-1.75-3.5-3.597-3.5h-3.791V72.96h3.791c1.847,0,3.597-0.875,3.597-3.986V52.643z M106.827,83.265
		c0-3.014-1.75-3.889-3.597-3.889h-3.791v23.915h3.791c1.847,0,3.597-0.973,3.597-3.598V83.265z"/>
</g>
<circle fill="#FFFFFF" cx="74.969" cy="75.477" r="3.25"/>
<line fill="none" stroke="#FFFFFF" stroke-width="6" stroke-miterlimit="10" x1="33.719" y1="44.977" x2="56.719" y2="44.977"/>
<g enable-background="new    ">
	<path fill="#FFFFFF" d="M42.955,160.773v20.4c0,2.646-2.132,4.779-4.779,4.779s-4.778-2.133-4.778-4.779v-20.4h1.911v20.4
		c0,1.582,1.287,2.867,2.867,2.867s2.867-1.285,2.867-2.867v-20.4H42.955z"/>
	<path fill="#FFFFFF" d="M46.299,185.585v-17.939h1.323l0.331,1.398c0.625-0.957,1.654-1.582,2.793-1.582
		c1.912,0,3.492,1.766,3.492,3.971v14.152h-1.912v-14.152c0-1.139-0.919-2.059-2.059-2.059c-1.139,0-2.058,0.92-2.058,2.059v14.152
		H46.299z"/>
	<path fill="#FFFFFF" d="M65.156,185.585h-1.323l-0.331-1.396c-0.625,0.955-1.654,1.58-2.793,1.58c-1.912,0-3.492-1.766-3.492-3.971
		v-10.365c0-2.205,1.581-3.971,3.492-3.971c0.992,0,1.911,0.479,2.536,1.25v-7.719l1.912-0.221V185.585z M63.244,171.433
		c0-1.139-0.919-2.059-2.059-2.059c-1.139,0-2.058,0.92-2.058,2.059v10.365c0,1.141,0.919,2.059,2.058,2.059
		c1.14,0,2.059-0.918,2.059-2.059V171.433z"/>
	<path fill="#FFFFFF" d="M76.036,179.447v2.352c0,2.205-1.765,3.971-3.97,3.971s-3.97-1.766-3.97-3.971v-10.365
		c0-2.205,1.765-3.971,3.97-3.971s3.97,1.766,3.97,3.971v5.514h-6.029v4.852c0,1.141,0.919,2.059,2.059,2.059
		s2.058-0.918,2.058-2.059v-2.131L76.036,179.447z M70.007,175.035h4.117v-3.602c0-1.139-0.918-2.059-2.058-2.059
		s-2.059,0.92-2.059,2.059V175.035z"/>
	<path fill="#FFFFFF" d="M84.305,169.375h-1.359c-1.25,0-2.205,0.992-2.205,2.242v13.969h-1.912v-17.939h1.324l0.33,1.398
		c0.625-0.957,1.875-1.582,3.822-1.582V169.375z"/>
	<path fill="#FFFFFF" d="M86.254,160.994l1.91-0.221v7.939c0.625-0.771,1.545-1.25,2.537-1.25c1.91,0,3.492,1.766,3.492,3.971
		v10.365c0,2.205-1.582,3.971-3.492,3.971c-1.141,0-2.17-0.625-2.795-1.58l-0.33,1.396h-1.322V160.994z M88.165,181.798
		c0,1.141,0.92,2.059,2.059,2.059c1.141,0,2.059-0.918,2.059-2.059v-10.365c0-1.139-0.918-2.059-2.059-2.059
		c-1.139,0-2.059,0.92-2.059,2.059V181.798z"/>
	<path fill="#FFFFFF" d="M104.559,183.011c0,0.369,0.295,0.662,0.662,0.662v1.912c-0.771,0-1.471-0.332-1.949-0.846
		c-0.697,0.662-1.654,1.029-2.684,1.029c-2.205,0-3.969-1.766-3.969-3.971v-2.021c0-1.838,1.617-2.756,1.617-2.756l2.83-1.617
		c0,0,1.58-0.92,1.58-2.391v-1.801c0-1.029-0.809-1.838-1.838-1.838s-1.838,0.809-1.838,1.838v2.133l-1.91,0.221v-2.354
		c0-2.059,1.689-3.75,3.748-3.75s3.75,1.691,3.75,3.75V183.011z M98.532,181.798c0,1.141,0.918,2.059,2.057,2.059
		c1.141,0,2.059-0.918,2.059-2.059v-5.219c-0.293,0.293-0.625,0.477-0.625,0.477l-2.83,1.619c0,0-0.66,0.367-0.66,1.102V181.798z"/>
	<path fill="#FFFFFF" d="M113.233,169.375h-1.359c-1.25,0-2.205,0.992-2.205,2.242v13.969h-1.912v-17.939h1.324l0.33,1.398
		c0.625-0.957,1.875-1.582,3.822-1.582V169.375z"/>
</g>
</svg>
