<?xml version="1.0" encoding="utf-8"?>
<!-- Generator: Adobe Illustrator 16.0.4, SVG Export Plug-In . SVG Version: 6.00 Build 0)  -->
<!DOCTYPE svg PUBLIC "-//W3C//DTD SVG 1.1//EN" "http://www.w3.org/Graphics/SVG/1.1/DTD/svg11.dtd">
<svg version="1.1" id="Layer_1" xmlns="http://www.w3.org/2000/svg" xmlns:xlink="http://www.w3.org/1999/xlink" x="0px" y="0px"
	 width="20.195px" height="22.618px" viewBox="0 0 20.195 22.618" enable-background="new 0 0 20.195 22.618" xml:space="preserve">
<path fill="#4DFFBB" d="M18.566,2.421h-0.793V1.62c0-0.894-0.727-1.62-1.621-1.62c-0.893,0-1.619,0.727-1.619,1.62v0.801H5.664V1.62
	C5.664,0.727,4.938,0,4.045,0C3.15,0,2.426,0.727,2.426,1.62v0.801H1.611C0.725,2.428,0,3.155,0,4.043v3.632v4.838v4.847v4.848
	c0,0.226,0.186,0.41,0.41,0.41h4.848h4.848h4.836h4.846c0.225,0,0.408-0.185,0.408-0.41V17.36v-4.847V7.675V4.043
	C20.195,3.155,19.473,2.428,18.566,2.421z M9.695,8.085v4.019H5.668V8.085H9.695z M14.533,8.085v4.019h-4.02V8.085H14.533z
	 M19.377,8.085v4.019h-4.025V8.085H19.377z M4.848,12.104H0.82V8.085h4.027V12.104z M0.82,12.922h4.027v4.027H0.82V12.922z
	 M5.668,12.922h4.027v4.027H5.668V12.922z M10.514,12.922h4.02v4.027h-4.02V12.922z M15.352,12.922h4.025v4.027h-4.025V12.922z
	 M15.352,1.62c0-0.442,0.359-0.8,0.801-0.8s0.799,0.358,0.799,0.8v1.211v1.212c0,0.442-0.357,0.801-0.799,0.801
	s-0.801-0.359-0.801-0.801V2.832V1.62z M3.244,1.62c0-0.442,0.357-0.8,0.801-0.8c0.441,0,0.799,0.358,0.799,0.8v1.211v1.212
	c0,0.442-0.357,0.801-0.799,0.801c-0.443,0-0.801-0.359-0.801-0.801V2.832V1.62z M0.82,4.043c0-0.439,0.357-0.799,0.811-0.802h0.795
	v0.802c0,0.894,0.725,1.62,1.619,1.62c0.893,0,1.619-0.726,1.619-1.62V3.241h8.869v0.802c0,0.894,0.727,1.62,1.619,1.62
	c0.895,0,1.621-0.726,1.621-1.62V3.241h0.807c0.439,0.003,0.797,0.363,0.797,0.802v3.222h-4.371h-0.064h-0.061H10.17h-0.064h-0.062
	H5.258H0.82V4.043z M0.82,17.77h4.027v4.027H0.82V17.77z M5.668,17.77h4.027v4.027H5.668V17.77z M10.514,17.77h4.02v4.027h-4.02
	V17.77z M19.377,21.797h-4.025V17.77h4.025V21.797z"/>
</svg>
