<?xml version="1.0" encoding="utf-8"?>
<!-- Generator: Adobe Illustrator 16.0.4, SVG Export Plug-In . SVG Version: 6.00 Build 0)  -->
<!DOCTYPE svg PUBLIC "-//W3C//DTD SVG 1.1//EN" "http://www.w3.org/Graphics/SVG/1.1/DTD/svg11.dtd">
<svg version="1.1" id="Layer_1" xmlns="http://www.w3.org/2000/svg" xmlns:xlink="http://www.w3.org/1999/xlink" x="0px" y="0px"
	 width="9.946px" height="8.876px" viewBox="0 0 9.946 8.876" enable-background="new 0 0 9.946 8.876" xml:space="preserve">
<g>
	<path fill="#4DFFBB" d="M4.967,8.876c0.323,0,0.624-0.193,0.821-0.533l3.996-6.927C9.894,1.23,9.946,1.041,9.946,0.855
		C9.946,0.352,9.544,0,8.964,0H0.975c-0.793,0-1.227,0.715-0.82,1.42l3.994,6.921C4.346,8.683,4.645,8.876,4.967,8.876z M4.965,8.06
		C4.963,8.054,4.915,8.026,4.862,7.931L0.866,1.012c-0.051-0.09-0.055-0.143-0.055-0.154c0.006-0.014,0.055-0.039,0.164-0.039h7.991
		c0.109,0,0.158,0.025,0.168,0.035L9.13,0.855c0,0.014-0.004,0.066-0.055,0.154L5.079,7.931C5.026,8.026,4.977,8.054,4.965,8.06z"/>
</g>
</svg>
