<?xml version="1.0" encoding="utf-8"?>
<!-- Generator: Adobe Illustrator 16.0.4, SVG Export Plug-In . SVG Version: 6.00 Build 0)  -->
<!DOCTYPE svg PUBLIC "-//W3C//DTD SVG 1.1//EN" "http://www.w3.org/Graphics/SVG/1.1/DTD/svg11.dtd">
<svg version="1.1" id="Layer_1" xmlns="http://www.w3.org/2000/svg" xmlns:xlink="http://www.w3.org/1999/xlink" x="0px" y="0px"
	 width="34.396px" height="26.206px" viewBox="3.594 2.738 34.396 26.206" enable-background="new 3.594 2.738 34.396 26.206"
	 xml:space="preserve">
<g>
	<path fill="#40FFB9" d="M32.79,14.222c-0.216-0.067-0.445,0.051-0.515,0.267c-0.067,0.215,0.05,0.446,0.267,0.513
		c3.2,1.021,4.628,2.541,4.628,4.933c0,2.13-1.941,3.781-3.097,4.576c-0.112,0.078-0.179,0.203-0.179,0.338v3.131
		c-0.599-0.223-1.64-0.729-2.561-1.764c-0.097-0.107-0.241-0.157-0.383-0.131c-0.233,0.046-0.472,0.11-0.714,0.173
		c-0.417,0.113-0.849,0.229-1.257,0.229c-2.104,0-3.574-0.452-5.08-1.558c-0.184-0.135-0.438-0.095-0.572,0.087
		c-0.135,0.183-0.096,0.438,0.087,0.571c1.66,1.221,3.271,1.718,5.565,1.718c0.518,0,1.002-0.129,1.471-0.256
		c0.145-0.04,0.29-0.08,0.434-0.114c1.53,1.619,3.262,1.986,3.337,2c0.027,0.006,0.054,0.009,0.081,0.009
		c0.093,0,0.187-0.033,0.261-0.094c0.095-0.076,0.15-0.193,0.15-0.317v-3.471c2.113-1.507,3.275-3.321,3.275-5.128
		C37.989,17.168,36.337,15.351,32.79,14.222z"/>
	<path fill="#40FFB9" d="M30.619,13.793c0-6.303-5.748-11.055-13.368-11.055c-7.658,0-13.657,4.857-13.657,11.057
		c0,3.716,2.63,6.38,4.914,7.992v5.435c0,0.139,0.07,0.268,0.187,0.344c0.068,0.043,0.145,0.065,0.223,0.065
		c0.056,0,0.114-0.012,0.168-0.035c0.119-0.054,2.915-1.325,5.306-3.938c1.036,0.192,2.207,0.377,3.271,0.377
		C25.41,24.034,30.619,19.918,30.619,13.793z M17.66,23.216c-1.072,0-2.292-0.206-3.343-0.406c-0.142-0.025-0.287,0.022-0.383,0.13
		c-1.679,1.894-3.652,3.097-4.607,3.615v-4.98c0-0.136-0.066-0.262-0.178-0.338c-2.16-1.486-4.736-3.982-4.736-7.441
		c0-5.741,5.64-10.238,12.838-10.238c7.154,0,12.549,4.401,12.549,10.236C29.8,19.43,24.922,23.216,17.66,23.216z"/>
	<path fill="#40FFB9" d="M17.106,12.156c-0.904,0-1.638,0.734-1.638,1.637c0,0.904,0.734,1.638,1.638,1.638
		c0.903,0,1.638-0.734,1.638-1.638C18.745,12.891,18.009,12.156,17.106,12.156z M17.106,14.613c-0.451,0-0.819-0.367-0.819-0.819
		c0-0.452,0.368-0.819,0.819-0.819s0.819,0.367,0.819,0.819C17.925,14.246,17.557,14.613,17.106,14.613z"/>
	<path fill="#40FFB9" d="M22.839,12.156c-0.903,0-1.637,0.734-1.637,1.637c0,0.904,0.734,1.638,1.637,1.638s1.638-0.734,1.638-1.638
		C24.477,12.891,23.742,12.156,22.839,12.156z M22.839,14.613c-0.452,0-0.818-0.367-0.818-0.819c0-0.452,0.366-0.819,0.818-0.819
		c0.451,0,0.819,0.367,0.819,0.819C23.658,14.246,23.29,14.613,22.839,14.613z"/>
	<path fill="#40FFB9" d="M11.374,12.234c-0.904,0-1.638,0.735-1.638,1.638c0,0.903,0.734,1.637,1.638,1.637
		c0.903,0,1.638-0.734,1.638-1.637C13.012,12.969,12.277,12.234,11.374,12.234z M11.374,14.691c-0.451,0-0.819-0.368-0.819-0.819
		c0-0.453,0.368-0.819,0.819-0.819c0.451,0,0.818,0.366,0.818,0.819C12.192,14.323,11.825,14.691,11.374,14.691z"/>
</g>
</svg>
