<?xml version="1.0" encoding="utf-8"?>
<!-- Generator: Adobe Illustrator 16.0.4, SVG Export Plug-In . SVG Version: 6.00 Build 0)  -->
<!DOCTYPE svg PUBLIC "-//W3C//DTD SVG 1.1//EN" "http://www.w3.org/Graphics/SVG/1.1/DTD/svg11.dtd">
<svg version="1.1" id="Layer_1" xmlns="http://www.w3.org/2000/svg" xmlns:xlink="http://www.w3.org/1999/xlink" x="0px" y="0px"
	 width="22.846px" height="22.844px" viewBox="0 0 22.846 22.844" enable-background="new 0 0 22.846 22.844" xml:space="preserve">
<g>
	<g>
		<g>
			<g>
				<path fill="#40FFB9" d="M7.17,10.593c-0.984,0-1.785-0.801-1.785-1.787c0-0.984,0.801-1.786,1.785-1.786
					s1.787,0.801,1.787,1.786C8.958,9.792,8.155,10.593,7.17,10.593z M7.17,7.84c-0.531,0-0.965,0.435-0.965,0.967
					c0,0.534,0.434,0.967,0.965,0.967c0.533,0,0.967-0.434,0.967-0.967C8.137,8.274,7.704,7.84,7.17,7.84z"/>
			</g>
		</g>
	</g>
	<g>
		<g>
			<g>
				<path fill="#40FFB9" d="M11.362,10.593c-0.984,0-1.785-0.801-1.785-1.787c0-0.984,0.801-1.786,1.785-1.786
					s1.787,0.801,1.787,1.786C13.149,9.792,12.346,10.593,11.362,10.593z M11.362,7.84c-0.533,0-0.967,0.435-0.967,0.967
					c0,0.534,0.434,0.967,0.967,0.967c0.535,0,0.969-0.434,0.969-0.967C12.331,8.274,11.897,7.84,11.362,7.84z"/>
			</g>
		</g>
	</g>
	<g>
		<g>
			<g>
				<path fill="#40FFB9" d="M15.551,10.593c-0.98,0-1.785-0.801-1.785-1.787c0-0.984,0.805-1.786,1.785-1.786
					c0.986,0,1.787,0.801,1.787,1.786C17.338,9.792,16.538,10.593,15.551,10.593z M15.551,7.84c-0.533,0-0.965,0.435-0.965,0.967
					c0,0.534,0.432,0.967,0.965,0.967c0.535,0,0.969-0.434,0.969-0.967C16.52,8.274,16.086,7.84,15.551,7.84z"/>
			</g>
		</g>
	</g>
	<g>
		<g>
			<g>
				<path fill="#40FFB9" d="M18.303,22.983c-0.105,0-0.213-0.042-0.291-0.12l-5.383-5.383H1.79c-0.02,0-0.039-0.002-0.059-0.005
					c-0.955-0.027-1.729-0.818-1.729-1.785V1.926c0-0.984,0.801-1.787,1.787-1.787h19.27c0.982,0,1.783,0.801,1.783,1.784v13.715
					c0.002,0.016,0.004,0.034,0.004,0.052c0,0.02-0.002,0.036-0.004,0.057c-0.025,0.938-0.785,1.699-1.727,1.729
					c-0.02,0.002-0.037,0.005-0.059,0.005h-2.346v5.093c0,0.166-0.1,0.315-0.254,0.381C18.409,22.974,18.356,22.983,18.303,22.983z
					 M1.838,16.661h10.961c0.109,0,0.213,0.043,0.289,0.121l4.805,4.803v-4.514c0-0.227,0.186-0.41,0.41-0.41h2.705
					c0.018-0.002,0.033-0.004,0.051-0.004c0.531,0,0.963-0.43,0.963-0.96c0-0.003,0-0.006,0-0.01V1.93
					c0-0.537-0.432-0.97-0.963-0.97H1.79c-0.533,0-0.967,0.434-0.967,0.967v13.764c0,0.532,0.432,0.966,0.963,0.966
					C1.805,16.657,1.821,16.659,1.838,16.661z"/>
			</g>
		</g>
	</g>
</g>
</svg>
