<?xml version="1.0" encoding="utf-8"?>
<!-- Generator: Adobe Illustrator 16.0.4, SVG Export Plug-In . SVG Version: 6.00 Build 0)  -->
<!DOCTYPE svg PUBLIC "-//W3C//DTD SVG 1.1//EN" "http://www.w3.org/Graphics/SVG/1.1/DTD/svg11.dtd">
<svg version="1.1" id="Layer_1" xmlns="http://www.w3.org/2000/svg" xmlns:xlink="http://www.w3.org/1999/xlink" x="0px" y="0px"
	 width="24.524px" height="25.423px" viewBox="3.507 2.764 24.524 25.423" enable-background="new 3.507 2.764 24.524 25.423"
	 xml:space="preserve">
<g>
	<g>
		<g>
			<g>
				<g>
					<path fill="#40FFB9" d="M23.818,28.188l-4.183-4.185c-1.259,0.375-2.557,0.566-3.871,0.566
						c-6.758,0-12.257-4.891-12.257-10.904c0-6.01,5.499-10.901,12.257-10.901c6.765,0,12.267,4.892,12.267,10.901
						c0,3.159-1.531,6.143-4.213,8.219V28.188L23.818,28.188z M19.882,22.994l3.051,3.046v-4.598l0.176-0.134
						c2.562-1.913,4.034-4.698,4.034-7.643c0-5.52-5.103-10.012-11.376-10.012C9.5,3.654,4.4,8.146,4.4,13.666
						c0,5.521,5.101,10.015,11.367,10.015c1.312,0,2.608-0.203,3.861-0.606L19.882,22.994z"/>
				</g>
			</g>
		</g>
	</g>
	<g>
		<g>
			<g>
				<g>
					<path fill="#40FFB9" d="M21.75,14.275H9.793c-0.244,0-0.443-0.2-0.443-0.445c0-0.246,0.199-0.445,0.443-0.445H21.75
						c0.243,0,0.442,0.2,0.442,0.445C22.192,14.075,21.993,14.275,21.75,14.275z"/>
				</g>
			</g>
		</g>
		<g>
			<g>
				<g>
					<path fill="#40FFB9" d="M21.75,17.266H9.793c-0.244,0-0.443-0.201-0.443-0.445c0-0.245,0.199-0.445,0.443-0.445H21.75
						c0.243,0,0.442,0.2,0.442,0.445C22.192,17.066,21.993,17.266,21.75,17.266z"/>
				</g>
			</g>
		</g>
		<g>
			<g>
				<g>
					<path fill="#40FFB9" d="M21.75,11.29H9.793c-0.244,0-0.443-0.2-0.443-0.445c0-0.246,0.199-0.445,0.443-0.445H21.75
						c0.243,0,0.442,0.2,0.442,0.445C22.192,11.09,21.993,11.29,21.75,11.29z"/>
				</g>
			</g>
		</g>
	</g>
</g>
</svg>
