<?xml version="1.0" encoding="utf-8"?>
<!-- Generator: Adobe Illustrator 16.0.4, SVG Export Plug-In . SVG Version: 6.00 Build 0)  -->
<!DOCTYPE svg PUBLIC "-//W3C//DTD SVG 1.1//EN" "http://www.w3.org/Graphics/SVG/1.1/DTD/svg11.dtd">
<svg version="1.1" xmlns="http://www.w3.org/2000/svg" xmlns:xlink="http://www.w3.org/1999/xlink" x="0px" y="0px"
	 width="22.096px" height="22.094px" viewBox="0.523 5.14 22.096 22.094" enable-background="new 0.523 5.14 22.096 22.094"
	 xml:space="preserve">
<g id="Layer_1" display="none">
	<g display="inline">
		<path fill="#40FFB9" d="M22.802,7.661c0-2.253-0.687-5.534-1.999-7.444C20.71,0.081,20.557,0,20.391,0H2.411
			C2.246,0,2.092,0.081,1.999,0.217C0.687,2.129,0,5.409,0,7.661c0,5.932,4.73,12.528,11,12.868V29H6.901
			c-1.141-0.075-2,0.784-2,1.925V31.5c0,0.275,0.224,0.5,0.5,0.5h12c0.276,0,0.5-0.225,0.5-0.5V31c0-1.164-0.879-2.075-2-2H12
			v-8.471C18.27,20.189,22.802,13.593,22.802,7.661z M16.9,31h-11v-0.075c0-0.589,0.411-1,1-1h9C16.473,29.925,16.9,30.387,16.9,31z
			 M2.682,1H20.12c1.053,1.692,1.631,4.47,1.673,6.428c-0.845-0.196-1.746-0.31-2.77-0.31c-3.162,0-4.76,0.921-6.307,1.812
			c-1.497,0.863-2.911,1.678-5.804,1.678s-4.305-0.817-5.801-1.68L1.083,8.91C1.033,8.491,1,8.073,1,7.661
			C1,5.698,1.588,2.759,2.682,1z M1.311,10.188c1.357,0.749,2.913,1.418,5.604,1.418c3.16,0,4.758-0.921,6.304-1.812
			c1.497-0.862,2.911-1.678,5.805-1.678c1.025,0,1.92,0.11,2.74,0.32c-0.396,5.312-4.777,11.125-10.362,11.125
			C6.428,19.562,2.413,14.949,1.311,10.188z"/>
	</g>
</g>
<g id="Layer_2">
	<g>
		<path fill="#40FFB9" d="M16.896,15.792H6.245c-0.217,0-0.396,0.178-0.396,0.397c0,0.218,0.179,0.396,0.396,0.396h10.651
			c0.219,0,0.396-0.178,0.396-0.396C17.292,15.97,17.114,15.792,16.896,15.792z"/>
		<path fill="#40FFB9" d="M16.896,13.126H6.243c-0.219,0-0.396,0.178-0.396,0.396s0.178,0.396,0.396,0.396h10.653
			c0.219,0,0.396-0.178,0.396-0.396S17.114,13.126,16.896,13.126z"/>
		<path fill="#40FFB9" d="M16.896,10.466H6.245c-0.217,0-0.396,0.178-0.396,0.396c0,0.219,0.179,0.396,0.396,0.396h10.651
			c0.219,0,0.396-0.178,0.396-0.396C17.292,10.644,17.114,10.466,16.896,10.466z"/>
		<path fill="#40FFB9" d="M20.889,5.14H2.251c-0.954,0-1.729,0.776-1.729,1.728v13.312c0,0.935,0.748,1.696,1.674,1.727
			c0.019,0.002,0.038,0.004,0.055,0.004h10.486l5.206,5.207c0.078,0.075,0.18,0.116,0.284,0.116c0.049,0,0.102-0.01,0.15-0.031
			c0.147-0.06,0.246-0.205,0.246-0.365v-4.927h2.265c0.021,0,0.038-0.002,0.057-0.004c0.922-0.03,1.67-0.789,1.674-1.73V6.864
			C22.613,5.913,21.837,5.14,20.889,5.14z M21.824,20.183c-0.002,0.514-0.424,0.932-0.936,0.932c-0.017,0-0.034,0.002-0.049,0.003
			h-2.612c-0.222,0-0.397,0.178-0.397,0.397v4.365l-4.648-4.646c-0.075-0.075-0.174-0.117-0.279-0.117H2.3
			c-0.019-0.001-0.032-0.003-0.049-0.003c-0.516,0-0.935-0.42-0.935-0.936V6.867c0-0.515,0.419-0.935,0.935-0.935h18.637
			c0.512,0,0.934,0.42,0.936,0.938V20.183z"/>
	</g>
</g>
</svg>
