<?xml version="1.0" encoding="utf-8"?>
<!-- Generator: Adobe Illustrator 16.0.4, SVG Export Plug-In . SVG Version: 6.00 Build 0)  -->
<!DOCTYPE svg PUBLIC "-//W3C//DTD SVG 1.1//EN" "http://www.w3.org/Graphics/SVG/1.1/DTD/svg11.dtd">
<svg version="1.1" id="Layer_1" xmlns="http://www.w3.org/2000/svg" xmlns:xlink="http://www.w3.org/1999/xlink" x="0px" y="0px"
	 width="22.846px" height="22.844px" viewBox="0 0 22.846 22.844" enable-background="new 0 0 22.846 22.844" xml:space="preserve">
<g>
	<path fill="#4DFFBB" d="M16.928,11.014H5.916c-0.225,0-0.41,0.184-0.41,0.41s0.186,0.41,0.41,0.41h11.012
		c0.227,0,0.41-0.184,0.41-0.41S17.155,11.014,16.928,11.014z"/>
	<path fill="#4DFFBB" d="M16.928,8.257H5.914c-0.227,0-0.41,0.184-0.41,0.41s0.184,0.41,0.41,0.41h11.014
		c0.227,0,0.41-0.184,0.41-0.41S17.155,8.257,16.928,8.257z"/>
	<path fill="#4DFFBB" d="M16.928,5.507H5.916c-0.225,0-0.41,0.184-0.41,0.409c0,0.226,0.186,0.41,0.41,0.41h11.012
		c0.227,0,0.41-0.184,0.41-0.41C17.338,5.691,17.155,5.507,16.928,5.507z"/>
	<path fill="#4DFFBB" d="M21.057,0H1.787C0.801,0,0,0.803,0,1.787v13.765c0,0.966,0.773,1.754,1.73,1.785
		c0.02,0.002,0.039,0.004,0.057,0.004h10.842l5.383,5.384c0.08,0.077,0.186,0.12,0.293,0.12c0.051,0,0.105-0.01,0.156-0.032
		c0.152-0.062,0.254-0.212,0.254-0.378V17.34h2.342c0.021,0,0.039-0.002,0.059-0.004c0.953-0.031,1.727-0.816,1.73-1.789V1.783
		C22.84,0.799,22.038,0,21.057,0z M22.024,15.553c-0.002,0.531-0.438,0.963-0.967,0.963c-0.018,0-0.035,0.002-0.051,0.003h-2.701
		c-0.229,0-0.41,0.184-0.41,0.411v4.514l-4.807-4.804c-0.078-0.077-0.18-0.121-0.289-0.121H1.838
		c-0.02-0.001-0.033-0.003-0.051-0.003c-0.533,0-0.967-0.434-0.967-0.967V1.786c0-0.533,0.434-0.967,0.967-0.967h19.27
		c0.529,0,0.965,0.434,0.967,0.97V15.553z"/>
</g>
</svg>
