<?xml version="1.0" encoding="utf-8"?>
<!-- Generator: Adobe Illustrator 16.0.4, SVG Export Plug-In . SVG Version: 6.00 Build 0)  -->
<!DOCTYPE svg PUBLIC "-//W3C//DTD SVG 1.1//EN" "http://www.w3.org/Graphics/SVG/1.1/DTD/svg11.dtd">
<svg version="1.1" id="Layer_1" xmlns="http://www.w3.org/2000/svg" xmlns:xlink="http://www.w3.org/1999/xlink" x="0px" y="0px"
	 width="26.375px" height="26.375px" viewBox="2.625 2.625 26.375 26.375" enable-background="new 2.625 2.625 26.375 26.375"
	 xml:space="preserve">
<g>
	<path fill="#40FFB9" d="M21.553,15.609H9.336c-0.25,0-0.456,0.204-0.456,0.455c0,0.251,0.206,0.456,0.456,0.456h12.216
		c0.252,0,0.457-0.205,0.457-0.456C22.01,15.813,21.805,15.609,21.553,15.609z"/>
	<path fill="#40FFB9" d="M21.553,12.551H9.334c-0.251,0-0.455,0.204-0.455,0.455c0,0.251,0.204,0.455,0.455,0.455h12.218
		c0.252,0,0.457-0.204,0.457-0.455C22.01,12.755,21.805,12.551,21.553,12.551z"/>
	<path fill="#40FFB9" d="M21.553,9.5H9.336c-0.25,0-0.456,0.205-0.456,0.454c0,0.25,0.206,0.455,0.456,0.455h12.216
		c0.252,0,0.457-0.204,0.457-0.455C22.01,9.704,21.805,9.5,21.553,9.5z"/>
	<path fill="#40FFB9" d="M26.135,3.39H4.755c-1.095,0-1.982,0.891-1.982,1.982v15.271c0,1.071,0.858,1.945,1.92,1.98
		c0.021,0.003,0.043,0.005,0.062,0.005h12.03l5.972,5.973c0.088,0.085,0.205,0.133,0.324,0.133c0.056,0,0.118-0.012,0.174-0.036
		c0.169-0.068,0.281-0.234,0.281-0.419v-5.65h2.599c0.023,0,0.042-0.002,0.064-0.005c1.058-0.035,1.916-0.906,1.92-1.985V5.368
		C28.113,4.276,27.222,3.39,26.135,3.39z M27.207,20.646c-0.002,0.588-0.486,1.067-1.072,1.067c-0.02,0-0.039,0.002-0.057,0.003
		h-2.997c-0.253,0-0.454,0.203-0.454,0.457v5.008l-5.333-5.33c-0.087-0.085-0.2-0.135-0.321-0.135H4.812
		c-0.021-0.001-0.037-0.003-0.056-0.003c-0.591,0-1.073-0.481-1.073-1.073V5.371c0-0.591,0.481-1.072,1.073-1.072h21.379
		c0.586,0,1.07,0.481,1.072,1.077V20.646z"/>
</g>
</svg>
