<?xml version="1.0" encoding="utf-8"?>
<!-- Generator: Adobe Illustrator 16.0.4, SVG Export Plug-In . SVG Version: 6.00 Build 0)  -->
<!DOCTYPE svg PUBLIC "-//W3C//DTD SVG 1.1//EN" "http://www.w3.org/Graphics/SVG/1.1/DTD/svg11.dtd">
<svg version="1.1" id="Layer_1" xmlns="http://www.w3.org/2000/svg" xmlns:xlink="http://www.w3.org/1999/xlink" x="0px" y="0px"
	 width="12.838px" height="20.402px" viewBox="0 0 12.838 20.402" enable-background="new 0 0 12.838 20.402" xml:space="preserve">
<g>
	<path fill="#3C3F3E" d="M6.419,0C2.879,0,0,2.88,0,6.419c0,2.594,2.556,7.509,4.701,11.175c0.796,1.361,1.372,2.268,1.372,2.268
		l0.347,0.541l0.345-0.541c0,0,0.576-0.906,1.372-2.268c2.145-3.666,4.701-8.581,4.701-11.175C12.838,2.88,9.958,0,6.419,0z
		 M7.429,17.18c-0.414,0.709-0.768,1.292-1.009,1.686c-0.243-0.394-0.597-0.977-1.011-1.686c-1.715-2.932-4.59-8.225-4.59-10.761
		c0-3.087,2.512-5.599,5.601-5.599c3.086,0,5.598,2.512,5.598,5.599C12.018,8.955,9.143,14.248,7.429,17.18z"/>
	<path fill="#3C3F3E" d="M6.419,2.404c-2.214,0-4.016,1.801-4.016,4.015c0,2.215,1.801,4.015,4.016,4.015
		c2.213,0,4.014-1.8,4.014-4.015C10.434,4.205,8.633,2.404,6.419,2.404z M6.419,9.614c-1.763,0-3.196-1.433-3.196-3.195
		c0-1.761,1.433-3.194,3.196-3.194c1.76,0,3.195,1.434,3.195,3.194C9.614,8.182,8.18,9.614,6.419,9.614z"/>
</g>
</svg>
