<?xml version="1.0" encoding="utf-8"?>
<!-- Generator: Adobe Illustrator 16.0.4, SVG Export Plug-In . SVG Version: 6.00 Build 0)  -->
<!DOCTYPE svg PUBLIC "-//W3C//DTD SVG 1.1//EN" "http://www.w3.org/Graphics/SVG/1.1/DTD/svg11.dtd">
<svg version="1.1" id="Layer_1" xmlns="http://www.w3.org/2000/svg" xmlns:xlink="http://www.w3.org/1999/xlink" x="0px" y="0px"
	 width="28.525px" height="28.529px" viewBox="0 0 28.525 28.529" enable-background="new 0 0 28.525 28.529" xml:space="preserve">
<g id="Layer_1_1_" display="none">
	<g display="inline">
		<path fill="#3C3F3F" d="M1.638,30.417c0.268,0.066,0.542-0.088,0.611-0.354c1.03-3.843,5.142-3.582,7.644-4.181
			c0.627-0.146,1.122-0.267,1.443-0.403c2.851-1.237,2.718-2.92,2.995-4.371c0.034-0.176-0.028-0.354-0.165-0.475
			c-1.483-1.279-2.735-3.203-3.525-5.416c-0.022-0.062-0.058-0.12-0.104-0.171c-1.045-1.136-1.645-2.337-1.645-3.294
			c0-0.559,0.211-0.934,0.686-1.217c0.146-0.087,0.236-0.24,0.243-0.408C10.042,5.036,13.67,1.026,18.12,1
			c0.005,0,0.103,0.007,0.107,0.007c4.472,0.062,8.078,4.158,8.207,9.324c0.004,0.144,0.066,0.277,0.178,0.369
			c0.312,0.265,0.459,0.601,0.459,1.057c0,0.802-0.428,1.786-1.2,2.772c-0.037,0.047-0.062,0.101-0.084,0.158
			c-0.802,2.536-2.236,4.774-3.938,6.145c-0.146,0.116-0.213,0.302-0.18,0.482c0.278,1.451-0.168,2.928,2.684,4.168
			c0.336,0.146,0.858,0.26,1.521,0.401c2.479,0.537,6.645,0.643,7.661,4.438c0.062,0.224,0.262,0.37,0.481,0.37
			c0.043,0,0.086-0.006,0.13-0.019c0.268-0.07,0.425-0.347,0.354-0.611c-1.174-4.389-5.893-4.61-8.414-5.156
			c-0.585-0.127-1.09-0.234-1.336-0.344c-1.858-0.81-1.631-1.527-2.036-3.153c1.729-1.483,3.174-3.771,3.998-6.337
			c0.877-1.14,1.358-2.314,1.358-3.317c0-0.669-0.215-1.227-0.646-1.663C27.19,4.488,23.19,0.075,18.226,0.004l-0.149-0.002
			c-4.873,0.026-8.889,4.323-9.24,9.83c-0.626,0.46-0.943,1.105-0.943,1.924c0,1.184,0.669,2.599,1.84,3.896
			c0.809,2.223,2.062,4.176,3.556,5.542c-0.402,1.634-0.488,2.559-2.352,3.369c-0.241,0.104-0.722,0.22-1.277,0.354
			c-2.541,0.604-7.193,0.473-8.377,4.89C1.213,30.073,1.371,30.346,1.638,30.417z"/>
	</g>
</g>
<path fill="#3C3F3E" d="M10.48,21.439c-0.11,0-0.22-0.024-0.322-0.075c-0.242-0.124-0.396-0.37-0.396-0.642V7.807
	c0-0.271,0.153-0.521,0.396-0.642c0.242-0.121,0.535-0.095,0.752,0.067l8.611,6.458c0.18,0.135,0.286,0.349,0.286,0.574
	c0,0.226-0.106,0.44-0.286,0.574l-8.611,6.459C10.784,21.389,10.632,21.439,10.48,21.439z M11.197,9.242v10.045l6.697-5.023
	L11.197,9.242z"/>
<path fill="#3C3F3E" d="M27.701,2.784H0.435c-0.396,0-0.718,0.321-0.718,0.717v21.525c0,0.395,0.321,0.717,0.718,0.717h27.266
	c0.395,0,0.716-0.322,0.716-0.717V3.502C28.417,3.106,28.095,2.784,27.701,2.784z M4.022,15.699h-2.87v-2.87h2.87V15.699z
	 M4.022,11.394h-2.87v-2.87h2.87V11.394z M1.152,17.135h2.87v2.871h-2.87V17.135z M5.458,4.219h17.219v20.09H5.458V4.219z
	 M24.112,12.829h2.87v2.87h-2.87V12.829z M24.112,11.394v-2.87h2.87v2.87H24.112z M24.112,17.135h2.87v2.871h-2.87V17.135z
	 M26.982,7.089h-2.87v-2.87h2.87V7.089z M4.022,4.219v2.87h-2.87v-2.87H4.022z M1.152,21.439h2.87v2.87h-2.87V21.439z
	 M24.112,24.309v-2.87h2.87v2.87H24.112z"/>
</svg>
