<?xml version="1.0" encoding="utf-8"?>
<!-- Generator: Adobe Illustrator 16.0.4, SVG Export Plug-In . SVG Version: 6.00 Build 0)  -->
<!DOCTYPE svg PUBLIC "-//W3C//DTD SVG 1.1//EN" "http://www.w3.org/Graphics/SVG/1.1/DTD/svg11.dtd">
<svg version="1.1" id="Layer_1" xmlns="http://www.w3.org/2000/svg" xmlns:xlink="http://www.w3.org/1999/xlink" x="0px" y="0px"
	 width="42px" height="32px" viewBox="0 0 42 32" enable-background="new 0 0 42 32" xml:space="preserve">
<g>
	<path fill="#3C3F3E" d="M3.692,21.721c0.176,0.041,0.415,0.258,0.484,0.456l0.35,0.845c0.079,0.162,0.064,0.482-0.03,0.637
		l-1.397,2.283c-0.299,0.49-0.237,1.185,0.165,1.635l1.183,1.182c0.412,0.366,1.139,0.432,1.613,0.145l2.284-1.396
		c0.143-0.088,0.45-0.119,0.665-0.018l0.843,0.348c0.17,0.059,0.387,0.297,0.429,0.473l0.627,2.604
		c0.133,0.552,0.66,1.006,1.226,1.058c0,0,0.347,0.032,0.867,0.032s0.867-0.032,0.868-0.032c0.565-0.051,1.092-0.506,1.225-1.058
		l0.628-2.604c0.042-0.175,0.258-0.414,0.456-0.482l0.844-0.35c0.149-0.074,0.494-0.059,0.637,0.029l2.284,1.396
		c0.201,0.123,0.441,0.188,0.696,0.188c0.345,0,0.679-0.12,0.938-0.352l1.182-1.183c0.382-0.43,0.444-1.123,0.146-1.613
		l-1.397-2.284c-0.094-0.154-0.109-0.476-0.018-0.665l0.348-0.844c0.06-0.17,0.297-0.387,0.474-0.428l2.604-0.627
		c0.552-0.134,1.006-0.66,1.059-1.227c0,0,0.031-0.348,0.031-0.867s-0.031-0.867-0.031-0.868c-0.052-0.565-0.507-1.092-1.059-1.226
		l-2.604-0.626c-0.176-0.042-0.414-0.259-0.483-0.457l-0.35-0.844c-0.079-0.162-0.064-0.483,0.03-0.637l1.397-2.284
		c0.299-0.49,0.236-1.184-0.166-1.634l-1.182-1.182c-0.414-0.367-1.142-0.433-1.614-0.145l-2.284,1.397
		c-0.143,0.087-0.451,0.12-0.665,0.018l-0.843-0.348c-0.17-0.059-0.386-0.297-0.428-0.473l-0.628-2.604
		c-0.133-0.552-0.66-1.006-1.226-1.058C13.867,6.032,13.52,6,13,6s-0.867,0.032-0.868,0.032c-0.565,0.051-1.092,0.506-1.226,1.058
		L10.28,9.692c-0.042,0.176-0.259,0.415-0.457,0.484l-0.844,0.35c-0.15,0.073-0.494,0.057-0.637-0.03L6.059,9.099
		C5.586,8.811,4.874,8.861,4.425,9.263l-1.182,1.183c-0.382,0.429-0.444,1.123-0.145,1.613l1.397,2.284
		c0.094,0.154,0.109,0.475,0.018,0.665l-0.348,0.843c-0.059,0.17-0.297,0.387-0.473,0.429l-2.604,0.627
		c-0.552,0.133-1.006,0.659-1.058,1.226C0.032,18.133,0,18.48,0,19s0.032,0.867,0.032,0.868c0.051,0.565,0.506,1.092,1.058,1.226
		L3.692,21.721z M1,19c0-0.458,0.027-0.768,0.028-0.777c0.012-0.135,0.165-0.312,0.296-0.344l2.604-0.627
		c0.505-0.122,1.014-0.584,1.172-1.047l0.324-0.787c0.228-0.467,0.196-1.153-0.075-1.597l-1.397-2.283
		c-0.067-0.111-0.048-0.331,0.018-0.406L5.111,9.99c0.091-0.081,0.323-0.101,0.427-0.038l2.284,1.397
		c0.433,0.265,1.175,0.283,1.568,0.088l0.788-0.326c0.491-0.169,0.953-0.678,1.075-1.184l0.626-2.603
		c0.032-0.132,0.209-0.285,0.344-0.297C12.233,7.027,12.542,7,13,7s0.767,0.027,0.777,0.028c0.135,0.012,0.312,0.165,0.344,0.296
		l0.627,2.603c0.122,0.505,0.583,1.015,1.047,1.173l0.787,0.324c0.457,0.224,1.165,0.189,1.597-0.075l2.283-1.397
		c0.104-0.063,0.35-0.03,0.406,0.018l1.142,1.141c0.086,0.097,0.105,0.316,0.038,0.427l-1.397,2.284
		c-0.271,0.443-0.303,1.13-0.088,1.568l0.326,0.788c0.169,0.491,0.677,0.953,1.184,1.075l2.603,0.626
		c0.133,0.032,0.285,0.209,0.297,0.344C24.973,18.232,25,18.542,25,19s-0.027,0.768-0.027,0.777
		c-0.013,0.135-0.166,0.312-0.297,0.344l-2.604,0.627c-0.506,0.122-1.014,0.584-1.172,1.047l-0.324,0.787
		c-0.228,0.467-0.196,1.152,0.075,1.598l1.397,2.282c0.067,0.111,0.048,0.331-0.019,0.406l-1.14,1.142
		c-0.054,0.049-0.152,0.079-0.251,0.079c-0.069,0-0.133-0.015-0.175-0.041l-2.284-1.397c-0.432-0.264-1.174-0.282-1.568-0.088
		l-0.788,0.326c-0.491,0.17-0.953,0.68-1.074,1.185l-0.627,2.603c-0.032,0.133-0.209,0.285-0.344,0.297
		C13.767,30.973,13.458,31,13,31s-0.767-0.027-0.777-0.027c-0.135-0.013-0.312-0.166-0.344-0.297l-0.627-2.604
		c-0.122-0.506-0.584-1.014-1.047-1.172l-0.787-0.324c-0.204-0.1-0.451-0.152-0.715-0.152c-0.329,0-0.642,0.081-0.882,0.229
		l-2.283,1.396c-0.104,0.062-0.351,0.029-0.406-0.018L3.99,26.889c-0.086-0.097-0.105-0.315-0.038-0.427l1.397-2.284
		c0.271-0.443,0.303-1.13,0.088-1.568l-0.326-0.787c-0.169-0.491-0.678-0.953-1.184-1.075l-2.603-0.626
		c-0.132-0.032-0.285-0.209-0.297-0.344C1.027,19.768,1,19.458,1,19z"/>
	<path fill="#3C3F3E" d="M13,24.5c3.033,0,5.5-2.467,5.5-5.5s-2.467-5.5-5.5-5.5S7.5,15.967,7.5,19S9.967,24.5,13,24.5z M13,14.5
		c2.481,0,4.5,2.02,4.5,4.5s-2.019,4.5-4.5,4.5S8.5,21.48,8.5,19S10.519,14.5,13,14.5z"/>
	<path fill="#3C3F3E" d="M27.477,5.314c-0.039,0.061-0.185,0.138-0.259,0.138l-1.86-0.018c-0.453,0-0.905,0.321-1.053,0.746
		c0,0-0.082,0.233-0.173,0.59c-0.09,0.357-0.128,0.601-0.128,0.601c-0.07,0.451,0.182,0.95,0.584,1.161l1.641,0.86
		c0.063,0.033,0.156,0.172,0.166,0.273l0.094,0.635c0.015,0.07-0.033,0.23-0.084,0.28l-1.322,1.296
		c-0.331,0.324-0.418,0.878-0.189,1.313l0.599,1c0.253,0.372,0.801,0.562,1.231,0.428l1.823-0.558c0.099,0,0.198,0.038,0.254,0.083
		l0.515,0.38c0.061,0.04,0.14,0.187,0.139,0.259l-0.018,1.852c-0.004,0.456,0.315,0.913,0.746,1.062c0,0,0.232,0.082,0.59,0.173
		c0.356,0.09,0.601,0.128,0.601,0.128c0.026,0.004,0.13,0.012,0.155,0.012c0.408,0,0.822-0.244,1.006-0.596l0.859-1.641
		c0.033-0.063,0.172-0.156,0.273-0.166l0.663-0.096c0.101,0,0.218,0.052,0.251,0.086l1.296,1.322
		c0.315,0.322,0.847,0.437,1.313,0.19l0.998-0.6c0.383-0.26,0.567-0.79,0.43-1.231l-0.553-1.767
		c-0.021-0.068,0.013-0.232,0.078-0.311l0.381-0.515c0.039-0.061,0.185-0.138,0.259-0.138l1.86,0.018
		c0.453,0,0.905-0.321,1.053-0.746c0,0,0.082-0.233,0.173-0.59c0.09-0.357,0.128-0.601,0.128-0.601
		c0.07-0.451-0.182-0.95-0.584-1.161l-1.641-0.86c-0.063-0.033-0.156-0.172-0.166-0.273L39.514,7.7
		c-0.016-0.07,0.032-0.23,0.084-0.28l1.321-1.296c0.331-0.324,0.418-0.878,0.19-1.313l-0.6-1c-0.253-0.371-0.8-0.563-1.23-0.429
		L37.454,3.94c-0.099,0-0.198-0.038-0.254-0.083l-0.515-0.38c-0.061-0.04-0.14-0.187-0.139-0.259l0.018-1.852
		c0.004-0.456-0.315-0.913-0.746-1.063c0,0-0.232-0.082-0.59-0.172c-0.356-0.09-0.601-0.128-0.601-0.128
		C34.602,0,34.498-0.008,34.473-0.008c-0.408,0-0.822,0.245-1.006,0.596l-0.859,1.641c-0.033,0.063-0.172,0.156-0.273,0.166
		L31.671,2.49c-0.101,0-0.218-0.052-0.251-0.086l-1.296-1.322c-0.313-0.321-0.845-0.437-1.313-0.19l-1,0.598
		c-0.381,0.26-0.566,0.79-0.429,1.231l0.552,1.767c0.021,0.068-0.012,0.232-0.078,0.311L27.477,5.314z M28.297,5.886l0.344-0.466
		c0.268-0.317,0.371-0.834,0.248-1.229l-0.552-1.766c-0.005-0.028,0.017-0.091,0.013-0.092l0.947-0.568l0.113,0.017l1.297,1.322
		c0.23,0.234,0.609,0.386,0.965,0.386c0.082,0,0.161-0.008,0.204-0.019l0.575-0.085c0.412-0.036,0.851-0.328,1.043-0.694l0.859-1.64
		c0.016-0.025,0.078-0.061,0.119-0.061c0.012,0.001,0.215,0.035,0.514,0.109c0.297,0.075,0.492,0.142,0.502,0.146
		c0.031,0.013,0.076,0.078,0.078,0.11l-0.019,1.852c-0.004,0.414,0.245,0.879,0.567,1.089L36.58,4.64
		c0.309,0.261,0.839,0.371,1.229,0.248l1.774-0.552c0.042,0,0.089,0.026,0.083,0.013l0.568,0.948c0.011,0.026,0,0.092-0.018,0.113
		l-1.322,1.297c-0.295,0.291-0.447,0.795-0.367,1.169l0.084,0.575c0.037,0.412,0.328,0.851,0.695,1.043l1.641,0.859
		c0.027,0.018,0.062,0.088,0.061,0.12c-0.001,0.011-0.035,0.215-0.109,0.513c-0.074,0.297-0.142,0.493-0.146,0.502
		c-0.013,0.031-0.078,0.076-0.11,0.078l-1.861-0.018c-0.411,0-0.871,0.249-1.079,0.567l-0.343,0.465
		c-0.268,0.317-0.371,0.834-0.248,1.229l0.552,1.766c0.005,0.027-0.017,0.091-0.013,0.092l-0.947,0.568l-0.113-0.017l-1.297-1.322
		c-0.23-0.234-0.609-0.386-0.965-0.386c-0.082,0-0.161,0.008-0.204,0.019l-0.575,0.085c-0.412,0.036-0.851,0.328-1.043,0.694
		l-0.859,1.64c-0.016,0.024-0.078,0.061-0.119,0.061l0,0c-0.012-0.001-0.215-0.034-0.514-0.108
		c-0.297-0.075-0.492-0.143-0.502-0.146c-0.031-0.013-0.076-0.078-0.078-0.109l0.019-1.853c0.004-0.414-0.245-0.879-0.567-1.089
		L29.42,13.36c-0.222-0.188-0.549-0.3-0.875-0.3c-0.126,0-0.246,0.018-0.355,0.052l-1.773,0.552c-0.043,0-0.09-0.023-0.083-0.013
		l-0.567-0.948c-0.012-0.026,0-0.092,0.017-0.113l1.321-1.297c0.295-0.291,0.448-0.795,0.367-1.169L27.387,9.55
		c-0.035-0.412-0.328-0.851-0.695-1.043l-1.64-0.859c-0.028-0.018-0.063-0.088-0.061-0.12c0.001-0.011,0.034-0.215,0.108-0.513
		c0.075-0.297,0.143-0.493,0.146-0.502c0.013-0.031,0.078-0.076,0.109-0.078l1.862,0.018C27.629,6.453,28.089,6.204,28.297,5.886z"
		/>
	<path fill="#3C3F3E" d="M33,12c1.654,0,3-1.346,3-3s-1.346-3-3-3s-3,1.346-3,3S31.346,12,33,12z M33,7c1.104,0,2,0.897,2,2
		s-0.896,2-2,2s-2-0.897-2-2S31.896,7,33,7z"/>
</g>
</svg>
