<?xml version="1.0" encoding="utf-8"?>
<!-- Generator: Adobe Illustrator 16.0.4, SVG Export Plug-In . SVG Version: 6.00 Build 0)  -->
<!DOCTYPE svg PUBLIC "-//W3C//DTD SVG 1.1//EN" "http://www.w3.org/Graphics/SVG/1.1/DTD/svg11.dtd">
<svg version="1.1" id="Layer_1" xmlns="http://www.w3.org/2000/svg" xmlns:xlink="http://www.w3.org/1999/xlink" x="0px" y="0px"
	 width="31.029px" height="24.219px" viewBox="5.071 3.958 31.029 24.219" enable-background="new 5.071 3.958 31.029 24.219"
	 xml:space="preserve">
<g>
	<path fill="#4DFFB8" d="M12.062,28.122c0.007,0.005,0.017,0.001,0.024,0.006c0.055,0.028,0.112,0.049,0.174,0.049
		c0.033,0,0.066-0.004,0.1-0.014l8.225-2.245l8.226,2.245c0.033,0.01,0.065,0.014,0.1,0.014c0.062,0,0.12-0.021,0.175-0.049
		c0.008-0.005,0.015-0.003,0.021-0.008l6.812-4.163c0.147-0.088,0.215-0.262,0.168-0.425l-3.771-13.245
		c-0.032-0.112-0.112-0.202-0.221-0.247c-0.106-0.044-0.229-0.037-0.329,0.02l-3.755,2.107c-0.182,0.102-0.247,0.333-0.145,0.516
		c0.102,0.183,0.332,0.247,0.515,0.145l3.337-1.873l3.564,12.507l-6.067,3.709l-1.441-11.528c-0.026-0.207-0.221-0.352-0.423-0.329
		c-0.206,0.026-0.354,0.216-0.328,0.423l1.443,11.547l-7.501-2.045v-2.067c0-0.21-0.169-0.38-0.378-0.38
		c-0.208,0-0.379,0.17-0.379,0.38v2.067l-7.501,2.045l1.444-11.547c0.025-0.207-0.122-0.397-0.329-0.423
		c-0.207-0.023-0.396,0.122-0.423,0.329l-1.44,11.528l-6.066-3.707l3.562-12.507l3.337,1.873c0.183,0.101,0.414,0.037,0.517-0.145
		c0.102-0.182,0.037-0.412-0.145-0.515l-3.756-2.108c-0.101-0.057-0.221-0.064-0.33-0.019c-0.107,0.044-0.188,0.134-0.22,0.246
		L5.086,23.534c-0.047,0.162,0.021,0.337,0.166,0.424L12.062,28.122z"/>
	<path fill="#4DFFB8" d="M20.33,21.644c0.073,0.066,0.164,0.1,0.256,0.1c0.091,0,0.181-0.032,0.254-0.097
		c0.253-0.229,6.18-5.669,6.18-11.256c0-3.608-2.825-6.433-6.434-6.433c-3.608,0-6.433,2.825-6.433,6.433
		C14.153,15.88,20.078,21.411,20.33,21.644z M20.586,4.714c3.235,0,5.676,2.44,5.676,5.676c0,4.614-4.535,9.336-5.674,10.45
		c-1.136-1.126-5.678-5.911-5.678-10.45C14.91,7.154,17.351,4.714,20.586,4.714z"/>
	<path fill="#4DFFB8" d="M23.991,10.391c0-1.877-1.528-3.406-3.405-3.406c-1.878,0-3.406,1.529-3.406,3.406
		c0,1.877,1.528,3.406,3.406,3.406C22.463,13.796,23.991,12.268,23.991,10.391z M20.586,13.04c-1.461,0-2.649-1.189-2.649-2.649
		s1.188-2.649,2.649-2.649s2.649,1.188,2.649,2.649S22.047,13.04,20.586,13.04z"/>
</g>
</svg>
