<?xml version="1.0" encoding="utf-8"?>
<!-- Generator: Adobe Illustrator 16.0.4, SVG Export Plug-In . SVG Version: 6.00 Build 0)  -->
<!DOCTYPE svg PUBLIC "-//W3C//DTD SVG 1.1//EN" "http://www.w3.org/Graphics/SVG/1.1/DTD/svg11.dtd">
<svg version="1.1" id="Layer_1" xmlns="http://www.w3.org/2000/svg" xmlns:xlink="http://www.w3.org/1999/xlink" x="0px" y="0px"
	 width="28.525px" height="28.529px" viewBox="0 0 28.525 28.529" enable-background="new 0 0 28.525 28.529" xml:space="preserve">
<g id="Layer_1_1_" display="none">
	<g display="inline">
		<path fill="#3C3F3F" d="M1.638,30.417c0.268,0.066,0.542-0.088,0.611-0.354c1.03-3.843,5.142-3.582,7.644-4.181
			c0.627-0.146,1.122-0.267,1.443-0.403c2.851-1.237,2.718-2.92,2.995-4.371c0.034-0.176-0.028-0.354-0.165-0.475
			c-1.483-1.279-2.735-3.203-3.525-5.416c-0.022-0.062-0.058-0.12-0.104-0.171c-1.045-1.136-1.645-2.337-1.645-3.294
			c0-0.559,0.211-0.934,0.686-1.217c0.146-0.087,0.236-0.24,0.243-0.408C10.042,5.036,13.67,1.026,18.12,1
			c0.005,0,0.103,0.007,0.107,0.007c4.472,0.062,8.078,4.158,8.207,9.324c0.004,0.144,0.066,0.277,0.178,0.369
			c0.312,0.265,0.459,0.601,0.459,1.057c0,0.802-0.428,1.786-1.2,2.772c-0.037,0.047-0.062,0.101-0.084,0.158
			c-0.802,2.536-2.236,4.774-3.938,6.145c-0.146,0.116-0.213,0.302-0.18,0.482c0.278,1.451-0.168,2.928,2.684,4.168
			c0.336,0.146,0.858,0.26,1.521,0.401c2.479,0.537,6.645,0.643,7.661,4.438c0.062,0.224,0.262,0.37,0.481,0.37
			c0.043,0,0.086-0.006,0.13-0.019c0.268-0.07,0.425-0.347,0.354-0.611c-1.174-4.389-5.893-4.61-8.414-5.156
			c-0.585-0.127-1.09-0.234-1.336-0.344c-1.858-0.81-1.631-1.527-2.036-3.153c1.729-1.483,3.174-3.771,3.998-6.337
			c0.877-1.14,1.358-2.314,1.358-3.317c0-0.669-0.215-1.227-0.646-1.663C27.19,4.488,23.19,0.075,18.226,0.004l-0.149-0.002
			c-4.873,0.026-8.889,4.323-9.24,9.83c-0.626,0.46-0.943,1.105-0.943,1.924c0,1.184,0.669,2.599,1.84,3.896
			c0.809,2.223,2.062,4.176,3.556,5.542c-0.402,1.634-0.488,2.559-2.352,3.369c-0.241,0.104-0.722,0.22-1.277,0.354
			c-2.541,0.604-7.193,0.473-8.377,4.89C1.213,30.073,1.371,30.346,1.638,30.417z"/>
	</g>
</g>
<path fill="#3C3F3E" d="M14.748,28.509c-0.218,0-0.425-0.101-0.56-0.273c-0.082-0.103-2.023-2.585-3.989-6.253
	c-1.158-2.156-2.083-4.277-2.746-6.297c-0.837-2.548-1.261-4.952-1.261-7.142c0-4.718,3.839-8.557,8.556-8.557
	c4.718,0,8.558,3.838,8.558,8.557c0,2.19-0.425,4.592-1.261,7.142c-0.663,2.02-1.588,4.141-2.747,6.297
	c-1.966,3.668-3.905,6.15-3.987,6.253c-0.136,0.173-0.343,0.273-0.56,0.273H14.748z M14.748,1.412c-3.931,0-7.13,3.199-7.13,7.131
	c0,4.64,2.086,9.503,3.837,12.765c1.286,2.396,2.58,4.298,3.293,5.29c0.717-0.996,2.018-2.908,3.307-5.312
	c1.743-3.257,3.823-8.112,3.823-12.744C21.878,4.611,18.679,1.412,14.748,1.412z"/>
<path fill="#3C3F3E" d="M14.748,12.822c-2.358,0-4.278-1.92-4.278-4.278c0-2.358,1.919-4.279,4.278-4.279
	c2.359,0,4.278,1.92,4.278,4.279C19.026,10.901,17.107,12.822,14.748,12.822z M14.748,5.691c-1.573,0-2.852,1.279-2.852,2.853
	s1.279,2.852,2.852,2.852c1.573,0,2.853-1.279,2.853-2.852S16.321,5.691,14.748,5.691z"/>
</svg>
